<svg xmlns="http://www.w3.org/2000/svg" xmlns:xlink="http://www.w3.org/1999/xlink" width="1920" zoomAndPan="magnify" viewBox="0 0 1440 809.999993" height="1080" preserveAspectRatio="xMidYMid meet" version="1.0"><defs><g/></defs><rect x="-144" width="1728" fill="#ffffff" y="-80.999999" height="971.999992" fill-opacity="1"/><rect x="-144" width="1728" fill="#ffffff" y="-80.999999" height="971.999992" fill-opacity="1"/><rect x="-144" width="1728" fill="#ffffff" y="-80.999999" height="971.999992" fill-opacity="1"/><path fill="#ceff1d" d="M 61.835938 202.386719 L 808.796875 202.386719 L 808.796875 293.886719 L 61.835938 293.886719 L 61.835938 202.386719 " fill-opacity="1" fill-rule="nonzero"/><path fill="#bff205" d="M 806.527344 202.386719 C 781.257812 202.386719 760.777344 222.871094 760.777344 248.136719 C 760.777344 273.40625 781.257812 293.886719 806.527344 293.886719 C 831.792969 293.886719 852.277344 273.40625 852.277344 248.136719 C 852.277344 222.871094 831.792969 202.386719 806.527344 202.386719 " fill-opacity="1" fill-rule="nonzero"/><path fill="#b5e0e8" d="M 610.519531 400.816406 L 839.269531 400.816406 L 839.269531 629.566406 L 610.519531 629.566406 L 610.519531 400.816406 " fill-opacity="1" fill-rule="nonzero"/><g fill="#ff3fa3" fill-opacity="1"><g transform="translate(61.56379, 106.968765)"><g><path d="M 33.46875 -45.265625 L 33.46875 -36.4375 L 15.03125 -36.4375 L 15.03125 -26.890625 L 28.828125 -26.890625 L 28.828125 -18.3125 L 15.03125 -18.3125 L 15.03125 0 L 4 0 L 4 -45.265625 Z M 33.46875 -45.265625 "/></g></g></g><g fill="#ff3fa3" fill-opacity="1"><g transform="translate(96.832465, 106.968765)"><g><path d="M 9.546875 -39.71875 C 7.609375 -39.71875 6.023438 -40.285156 4.796875 -41.421875 C 3.578125 -42.566406 2.96875 -43.976562 2.96875 -45.65625 C 2.96875 -47.375 3.578125 -48.800781 4.796875 -49.9375 C 6.023438 -51.082031 7.609375 -51.65625 9.546875 -51.65625 C 11.429688 -51.65625 12.988281 -51.082031 14.21875 -49.9375 C 15.445312 -48.800781 16.0625 -47.375 16.0625 -45.65625 C 16.0625 -43.976562 15.445312 -42.566406 14.21875 -41.421875 C 12.988281 -40.285156 11.429688 -39.71875 9.546875 -39.71875 Z M 15.03125 -35.984375 L 15.03125 0 L 4 0 L 4 -35.984375 Z M 15.03125 -35.984375 "/></g></g></g><g fill="#ff3fa3" fill-opacity="1"><g transform="translate(115.853048, 106.968765)"><g><path d="M 25.28125 0 L 18.375 -10 L 12.578125 0 L 0.640625 0 L 12.515625 -18.375 L 0.328125 -35.984375 L 12.703125 -35.984375 L 19.609375 -26.046875 L 25.40625 -35.984375 L 37.34375 -35.984375 L 25.28125 -17.859375 L 37.65625 0 Z M 25.28125 0 "/></g></g></g><g fill="#ff3fa3" fill-opacity="1"><g transform="translate(153.765263, 106.968765)"><g><path d="M 9.15625 0.515625 C 7.21875 0.515625 5.632812 -0.0507812 4.40625 -1.1875 C 3.1875 -2.332031 2.578125 -3.742188 2.578125 -5.421875 C 2.578125 -7.140625 3.1875 -8.578125 4.40625 -9.734375 C 5.632812 -10.898438 7.21875 -11.484375 9.15625 -11.484375 C 11.050781 -11.484375 12.609375 -10.898438 13.828125 -9.734375 C 15.054688 -8.578125 15.671875 -7.140625 15.671875 -5.421875 C 15.671875 -3.742188 15.054688 -2.332031 13.828125 -1.1875 C 12.609375 -0.0507812 11.050781 0.515625 9.15625 0.515625 Z M 9.15625 -25.484375 C 7.21875 -25.484375 5.632812 -26.050781 4.40625 -27.1875 C 3.1875 -28.332031 2.578125 -29.742188 2.578125 -31.421875 C 2.578125 -33.140625 3.1875 -34.578125 4.40625 -35.734375 C 5.632812 -36.898438 7.21875 -37.484375 9.15625 -37.484375 C 11.050781 -37.484375 12.609375 -36.898438 13.828125 -35.734375 C 15.054688 -34.578125 15.671875 -33.140625 15.671875 -31.421875 C 15.671875 -29.742188 15.054688 -28.332031 13.828125 -27.1875 C 12.609375 -26.050781 11.050781 -25.484375 9.15625 -25.484375 Z M 9.15625 -25.484375 "/></g></g></g><g fill="#ff3fa3" fill-opacity="1"><g transform="translate(172.076598, 106.968765)"><g/></g></g><g fill="#ff3fa3" fill-opacity="1"><g transform="translate(185.745627, 106.968765)"><g><path d="M 15.03125 -45.265625 L 15.03125 0 L 4 0 L 4 -45.265625 Z M 15.03125 -45.265625 "/></g></g></g><g fill="#ff3fa3" fill-opacity="1"><g transform="translate(204.76621, 106.968765)"><g><path d="M 49.90625 -36.375 C 54.382812 -36.375 57.941406 -35.019531 60.578125 -32.3125 C 63.222656 -29.601562 64.546875 -25.835938 64.546875 -21.015625 L 64.546875 0 L 53.59375 0 L 53.59375 -19.53125 C 53.59375 -21.851562 52.976562 -23.648438 51.75 -24.921875 C 50.519531 -26.191406 48.832031 -26.828125 46.6875 -26.828125 C 44.539062 -26.828125 42.851562 -26.191406 41.625 -24.921875 C 40.394531 -23.648438 39.78125 -21.851562 39.78125 -19.53125 L 39.78125 0 L 28.828125 0 L 28.828125 -19.53125 C 28.828125 -21.851562 28.210938 -23.648438 26.984375 -24.921875 C 25.765625 -26.191406 24.078125 -26.828125 21.921875 -26.828125 C 19.773438 -26.828125 18.085938 -26.191406 16.859375 -24.921875 C 15.640625 -23.648438 15.03125 -21.851562 15.03125 -19.53125 L 15.03125 0 L 4 0 L 4 -35.984375 L 15.03125 -35.984375 L 15.03125 -31.46875 C 16.144531 -32.96875 17.601562 -34.160156 19.40625 -35.046875 C 21.21875 -35.929688 23.257812 -36.375 25.53125 -36.375 C 28.238281 -36.375 30.65625 -35.789062 32.78125 -34.625 C 34.914062 -33.46875 36.582031 -31.8125 37.78125 -29.65625 C 39.03125 -31.632812 40.726562 -33.25 42.875 -34.5 C 45.03125 -35.75 47.375 -36.375 49.90625 -36.375 Z M 49.90625 -36.375 "/></g></g></g><g fill="#ff3fa3" fill-opacity="1"><g transform="translate(273.046888, 106.968765)"><g><path d="M 1.8125 -18.0625 C 1.8125 -21.75 2.507812 -24.988281 3.90625 -27.78125 C 5.300781 -30.582031 7.203125 -32.734375 9.609375 -34.234375 C 12.015625 -35.742188 14.703125 -36.5 17.671875 -36.5 C 20.203125 -36.5 22.425781 -35.984375 24.34375 -34.953125 C 26.257812 -33.921875 27.734375 -32.566406 28.765625 -30.890625 L 28.765625 -35.984375 L 39.78125 -35.984375 L 39.78125 0 L 28.765625 0 L 28.765625 -5.09375 C 27.679688 -3.414062 26.179688 -2.0625 24.265625 -1.03125 C 22.359375 0 20.140625 0.515625 17.609375 0.515625 C 14.679688 0.515625 12.015625 -0.242188 9.609375 -1.765625 C 7.203125 -3.296875 5.300781 -5.46875 3.90625 -8.28125 C 2.507812 -11.101562 1.8125 -14.363281 1.8125 -18.0625 Z M 28.765625 -17.984375 C 28.765625 -20.742188 28 -22.914062 26.46875 -24.5 C 24.945312 -26.09375 23.085938 -26.890625 20.890625 -26.890625 C 18.703125 -26.890625 16.84375 -26.101562 15.3125 -24.53125 C 13.789062 -22.96875 13.03125 -20.8125 13.03125 -18.0625 C 13.03125 -15.300781 13.789062 -13.113281 15.3125 -11.5 C 16.84375 -9.894531 18.703125 -9.09375 20.890625 -9.09375 C 23.085938 -9.09375 24.945312 -9.882812 26.46875 -11.46875 C 28 -13.0625 28.765625 -15.234375 28.765625 -17.984375 Z M 28.765625 -17.984375 "/></g></g></g><g fill="#ff3fa3" fill-opacity="1"><g transform="translate(316.826465, 106.968765)"><g><path d="M 17.671875 -36.5 C 20.203125 -36.5 22.425781 -35.984375 24.34375 -34.953125 C 26.257812 -33.921875 27.734375 -32.566406 28.765625 -30.890625 L 28.765625 -35.984375 L 39.78125 -35.984375 L 39.78125 -0.0625 C 39.78125 3.25 39.125 6.25 37.8125 8.9375 C 36.507812 11.625 34.515625 13.757812 31.828125 15.34375 C 29.140625 16.9375 25.796875 17.734375 21.796875 17.734375 C 16.460938 17.734375 12.140625 16.472656 8.828125 13.953125 C 5.523438 11.441406 3.632812 8.035156 3.15625 3.734375 L 14.0625 3.734375 C 14.40625 5.109375 15.21875 6.191406 16.5 6.984375 C 17.789062 7.785156 19.382812 8.1875 21.28125 8.1875 C 23.5625 8.1875 25.378906 7.53125 26.734375 6.21875 C 28.085938 4.90625 28.765625 2.8125 28.765625 -0.0625 L 28.765625 -5.15625 C 27.679688 -3.476562 26.191406 -2.113281 24.296875 -1.0625 C 22.410156 -0.0078125 20.203125 0.515625 17.671875 0.515625 C 14.703125 0.515625 12.015625 -0.242188 9.609375 -1.765625 C 7.203125 -3.296875 5.300781 -5.46875 3.90625 -8.28125 C 2.507812 -11.101562 1.8125 -14.363281 1.8125 -18.0625 C 1.8125 -21.75 2.507812 -24.988281 3.90625 -27.78125 C 5.300781 -30.582031 7.203125 -32.734375 9.609375 -34.234375 C 12.015625 -35.742188 14.703125 -36.5 17.671875 -36.5 Z M 28.765625 -17.984375 C 28.765625 -20.742188 28 -22.914062 26.46875 -24.5 C 24.945312 -26.09375 23.085938 -26.890625 20.890625 -26.890625 C 18.703125 -26.890625 16.84375 -26.101562 15.3125 -24.53125 C 13.789062 -22.96875 13.03125 -20.8125 13.03125 -18.0625 C 13.03125 -15.300781 13.789062 -13.113281 15.3125 -11.5 C 16.84375 -9.894531 18.703125 -9.09375 20.890625 -9.09375 C 23.085938 -9.09375 24.945312 -9.882812 26.46875 -11.46875 C 28 -13.0625 28.765625 -15.234375 28.765625 -17.984375 Z M 28.765625 -17.984375 "/></g></g></g><g fill="#ff3fa3" fill-opacity="1"><g transform="translate(360.606042, 106.968765)"><g><path d="M 37.921875 -18.578125 C 37.921875 -17.546875 37.851562 -16.46875 37.71875 -15.34375 L 12.765625 -15.34375 C 12.941406 -13.113281 13.660156 -11.40625 14.921875 -10.21875 C 16.191406 -9.039062 17.753906 -8.453125 19.609375 -8.453125 C 22.359375 -8.453125 24.269531 -9.609375 25.34375 -11.921875 L 37.078125 -11.921875 C 36.472656 -9.566406 35.382812 -7.441406 33.8125 -5.546875 C 32.25 -3.648438 30.285156 -2.164062 27.921875 -1.09375 C 25.554688 -0.0195312 22.910156 0.515625 19.984375 0.515625 C 16.460938 0.515625 13.328125 -0.234375 10.578125 -1.734375 C 7.828125 -3.242188 5.675781 -5.394531 4.125 -8.1875 C 2.582031 -10.976562 1.8125 -14.242188 1.8125 -17.984375 C 1.8125 -21.722656 2.570312 -24.988281 4.09375 -27.78125 C 5.625 -30.582031 7.765625 -32.734375 10.515625 -34.234375 C 13.265625 -35.742188 16.421875 -36.5 19.984375 -36.5 C 23.472656 -36.5 26.570312 -35.765625 29.28125 -34.296875 C 31.988281 -32.835938 34.101562 -30.753906 35.625 -28.046875 C 37.15625 -25.335938 37.921875 -22.179688 37.921875 -18.578125 Z M 26.625 -21.46875 C 26.625 -23.363281 25.976562 -24.867188 24.6875 -25.984375 C 23.40625 -27.097656 21.796875 -27.65625 19.859375 -27.65625 C 18.015625 -27.65625 16.457031 -27.117188 15.1875 -26.046875 C 13.914062 -24.972656 13.128906 -23.445312 12.828125 -21.46875 Z M 26.625 -21.46875 "/></g></g></g><g fill="#ff3fa3" fill-opacity="1"><g transform="translate(400.323584, 106.968765)"><g/></g></g><g fill="#ff3fa3" fill-opacity="1"><g transform="translate(413.992613, 106.968765)"><g><path d="M 32.375 -45.265625 L 32.375 -14.4375 C 32.375 -9.664062 31.03125 -5.988281 28.34375 -3.40625 C 25.65625 -0.832031 22.03125 0.453125 17.46875 0.453125 C 12.695312 0.453125 8.867188 -0.898438 5.984375 -3.609375 C 3.109375 -6.316406 1.671875 -10.164062 1.671875 -15.15625 L 12.640625 -15.15625 C 12.640625 -13.257812 13.023438 -11.828125 13.796875 -10.859375 C 14.566406 -9.898438 15.6875 -9.421875 17.15625 -9.421875 C 18.488281 -9.421875 19.519531 -9.847656 20.25 -10.703125 C 20.976562 -11.566406 21.34375 -12.8125 21.34375 -14.4375 L 21.34375 -45.265625 Z M 32.375 -45.265625 "/></g></g></g><g fill="#ff3fa3" fill-opacity="1"><g transform="translate(451.260044, 106.968765)"><g><path d="M 9.546875 -39.71875 C 7.609375 -39.71875 6.023438 -40.285156 4.796875 -41.421875 C 3.578125 -42.566406 2.96875 -43.976562 2.96875 -45.65625 C 2.96875 -47.375 3.578125 -48.800781 4.796875 -49.9375 C 6.023438 -51.082031 7.609375 -51.65625 9.546875 -51.65625 C 11.429688 -51.65625 12.988281 -51.082031 14.21875 -49.9375 C 15.445312 -48.800781 16.0625 -47.375 16.0625 -45.65625 C 16.0625 -43.976562 15.445312 -42.566406 14.21875 -41.421875 C 12.988281 -40.285156 11.429688 -39.71875 9.546875 -39.71875 Z M 15.03125 -35.984375 L 15.03125 0 L 4 0 L 4 -35.984375 Z M 15.03125 -35.984375 "/></g></g></g><g fill="#ff3fa3" fill-opacity="1"><g transform="translate(470.280627, 106.968765)"><g><path d="M 24.046875 -9.34375 L 24.046875 0 L 18.4375 0 C 14.445312 0 11.332031 -0.976562 9.09375 -2.9375 C 6.851562 -4.894531 5.734375 -8.085938 5.734375 -12.515625 L 5.734375 -26.828125 L 1.359375 -26.828125 L 1.359375 -35.984375 L 5.734375 -35.984375 L 5.734375 -44.75 L 16.765625 -44.75 L 16.765625 -35.984375 L 23.984375 -35.984375 L 23.984375 -26.828125 L 16.765625 -26.828125 L 16.765625 -12.375 C 16.765625 -11.300781 17.019531 -10.523438 17.53125 -10.046875 C 18.050781 -9.578125 18.914062 -9.34375 20.125 -9.34375 Z M 24.046875 -9.34375 "/></g></g></g><g fill="#ff3fa3" fill-opacity="1"><g transform="translate(496.458116, 106.968765)"><g><path d="M 24.046875 -9.34375 L 24.046875 0 L 18.4375 0 C 14.445312 0 11.332031 -0.976562 9.09375 -2.9375 C 6.851562 -4.894531 5.734375 -8.085938 5.734375 -12.515625 L 5.734375 -26.828125 L 1.359375 -26.828125 L 1.359375 -35.984375 L 5.734375 -35.984375 L 5.734375 -44.75 L 16.765625 -44.75 L 16.765625 -35.984375 L 23.984375 -35.984375 L 23.984375 -26.828125 L 16.765625 -26.828125 L 16.765625 -12.375 C 16.765625 -11.300781 17.019531 -10.523438 17.53125 -10.046875 C 18.050781 -9.578125 18.914062 -9.34375 20.125 -9.34375 Z M 24.046875 -9.34375 "/></g></g></g><g fill="#ff3fa3" fill-opacity="1"><g transform="translate(522.635605, 106.968765)"><g><path d="M 37.921875 -18.578125 C 37.921875 -17.546875 37.851562 -16.46875 37.71875 -15.34375 L 12.765625 -15.34375 C 12.941406 -13.113281 13.660156 -11.40625 14.921875 -10.21875 C 16.191406 -9.039062 17.753906 -8.453125 19.609375 -8.453125 C 22.359375 -8.453125 24.269531 -9.609375 25.34375 -11.921875 L 37.078125 -11.921875 C 36.472656 -9.566406 35.382812 -7.441406 33.8125 -5.546875 C 32.25 -3.648438 30.285156 -2.164062 27.921875 -1.09375 C 25.554688 -0.0195312 22.910156 0.515625 19.984375 0.515625 C 16.460938 0.515625 13.328125 -0.234375 10.578125 -1.734375 C 7.828125 -3.242188 5.675781 -5.394531 4.125 -8.1875 C 2.582031 -10.976562 1.8125 -14.242188 1.8125 -17.984375 C 1.8125 -21.722656 2.570312 -24.988281 4.09375 -27.78125 C 5.625 -30.582031 7.765625 -32.734375 10.515625 -34.234375 C 13.265625 -35.742188 16.421875 -36.5 19.984375 -36.5 C 23.472656 -36.5 26.570312 -35.765625 29.28125 -34.296875 C 31.988281 -32.835938 34.101562 -30.753906 35.625 -28.046875 C 37.15625 -25.335938 37.921875 -22.179688 37.921875 -18.578125 Z M 26.625 -21.46875 C 26.625 -23.363281 25.976562 -24.867188 24.6875 -25.984375 C 23.40625 -27.097656 21.796875 -27.65625 19.859375 -27.65625 C 18.015625 -27.65625 16.457031 -27.117188 15.1875 -26.046875 C 13.914062 -24.972656 13.128906 -23.445312 12.828125 -21.46875 Z M 26.625 -21.46875 "/></g></g></g><g fill="#ff3fa3" fill-opacity="1"><g transform="translate(562.353147, 106.968765)"><g><path d="M 15.03125 -29.984375 C 16.3125 -31.960938 17.921875 -33.519531 19.859375 -34.65625 C 21.796875 -35.800781 23.945312 -36.375 26.3125 -36.375 L 26.3125 -24.703125 L 23.28125 -24.703125 C 20.53125 -24.703125 18.46875 -24.109375 17.09375 -22.921875 C 15.71875 -21.742188 15.03125 -19.671875 15.03125 -16.703125 L 15.03125 0 L 4 0 L 4 -35.984375 L 15.03125 -35.984375 Z M 15.03125 -29.984375 "/></g></g></g><path fill="#86d4e3" d="M 964.5 400.816406 L 1193.25 400.816406 L 1193.25 629.566406 L 964.5 629.566406 L 964.5 400.816406 " fill-opacity="1" fill-rule="nonzero"/><path fill="#eafcff" d="M 246.671875 400.816406 L 475.421875 400.816406 L 475.421875 629.566406 L 246.671875 629.566406 L 246.671875 400.816406 " fill-opacity="1" fill-rule="nonzero"/><g fill="#ff3fa3" fill-opacity="1"><g transform="translate(1002.027324, 480.402188)"><g><path d="M 10.265625 -12.484375 L 7.5 -12.484375 L 7.5 0 L 2.375 0 L 2.375 -12.484375 L 0.515625 -12.484375 L 0.515625 -16.734375 L 2.375 -16.734375 L 2.375 -17.21875 C 2.375 -19.28125 2.960938 -20.84375 4.140625 -21.90625 C 5.316406 -22.976562 7.046875 -23.515625 9.328125 -23.515625 C 9.710938 -23.515625 9.992188 -23.503906 10.171875 -23.484375 L 10.171875 -19.140625 C 9.191406 -19.203125 8.5 -19.0625 8.09375 -18.71875 C 7.695312 -18.375 7.5 -17.765625 7.5 -16.890625 L 7.5 -16.734375 L 10.265625 -16.734375 Z M 10.265625 -12.484375 "/></g></g></g><g fill="#ff3fa3" fill-opacity="1"><g transform="translate(1012.827319, 480.402188)"><g><path d="M 6.984375 -13.953125 C 7.585938 -14.867188 8.335938 -15.59375 9.234375 -16.125 C 10.140625 -16.65625 11.140625 -16.921875 12.234375 -16.921875 L 12.234375 -11.484375 L 10.828125 -11.484375 C 9.546875 -11.484375 8.582031 -11.207031 7.9375 -10.65625 C 7.300781 -10.113281 6.984375 -9.148438 6.984375 -7.765625 L 6.984375 0 L 1.859375 0 L 1.859375 -16.734375 L 6.984375 -16.734375 Z M 6.984375 -13.953125 "/></g></g></g><g fill="#ff3fa3" fill-opacity="1"><g transform="translate(1025.667303, 480.402188)"><g><path d="M 0.84375 -8.40625 C 0.84375 -10.125 1.164062 -11.628906 1.8125 -12.921875 C 2.46875 -14.222656 3.351562 -15.222656 4.46875 -15.921875 C 5.59375 -16.628906 6.84375 -16.984375 8.21875 -16.984375 C 9.394531 -16.984375 10.425781 -16.742188 11.3125 -16.265625 C 12.207031 -15.785156 12.894531 -15.15625 13.375 -14.375 L 13.375 -16.734375 L 18.515625 -16.734375 L 18.515625 0 L 13.375 0 L 13.375 -2.375 C 12.875 -1.59375 12.175781 -0.960938 11.28125 -0.484375 C 10.394531 -0.00390625 9.363281 0.234375 8.1875 0.234375 C 6.832031 0.234375 5.59375 -0.117188 4.46875 -0.828125 C 3.351562 -1.535156 2.46875 -2.539062 1.8125 -3.84375 C 1.164062 -5.15625 0.84375 -6.675781 0.84375 -8.40625 Z M 13.375 -8.375 C 13.375 -9.65625 13.019531 -10.664062 12.3125 -11.40625 C 11.601562 -12.144531 10.738281 -12.515625 9.71875 -12.515625 C 8.695312 -12.515625 7.832031 -12.144531 7.125 -11.40625 C 6.414062 -10.675781 6.0625 -9.675781 6.0625 -8.40625 C 6.0625 -7.125 6.414062 -6.109375 7.125 -5.359375 C 7.832031 -4.609375 8.695312 -4.234375 9.71875 -4.234375 C 10.738281 -4.234375 11.601562 -4.601562 12.3125 -5.34375 C 13.019531 -6.082031 13.375 -7.09375 13.375 -8.375 Z M 13.375 -8.375 "/></g></g></g><g fill="#ff3fa3" fill-opacity="1"><g transform="translate(1046.037282, 480.402188)"><g><path d="M 23.21875 -16.921875 C 25.300781 -16.921875 26.957031 -16.289062 28.1875 -15.03125 C 29.414062 -13.769531 30.03125 -12.019531 30.03125 -9.78125 L 30.03125 0 L 24.9375 0 L 24.9375 -9.09375 C 24.9375 -10.164062 24.648438 -11 24.078125 -11.59375 C 23.503906 -12.1875 22.71875 -12.484375 21.71875 -12.484375 C 20.71875 -12.484375 19.929688 -12.1875 19.359375 -11.59375 C 18.796875 -11 18.515625 -10.164062 18.515625 -9.09375 L 18.515625 0 L 13.40625 0 L 13.40625 -9.09375 C 13.40625 -10.164062 13.117188 -11 12.546875 -11.59375 C 11.984375 -12.1875 11.203125 -12.484375 10.203125 -12.484375 C 9.203125 -12.484375 8.414062 -12.1875 7.84375 -11.59375 C 7.269531 -11 6.984375 -10.164062 6.984375 -9.09375 L 6.984375 0 L 1.859375 0 L 1.859375 -16.734375 L 6.984375 -16.734375 L 6.984375 -14.640625 C 7.503906 -15.335938 8.1875 -15.890625 9.03125 -16.296875 C 9.875 -16.710938 10.820312 -16.921875 11.875 -16.921875 C 13.132812 -16.921875 14.257812 -16.648438 15.25 -16.109375 C 16.238281 -15.566406 17.015625 -14.796875 17.578125 -13.796875 C 18.160156 -14.722656 18.953125 -15.472656 19.953125 -16.046875 C 20.953125 -16.628906 22.039062 -16.921875 23.21875 -16.921875 Z M 23.21875 -16.921875 "/></g></g></g><g fill="#ff3fa3" fill-opacity="1"><g transform="translate(1077.807247, 480.402188)"><g><path d="M 17.640625 -8.640625 C 17.640625 -8.160156 17.609375 -7.660156 17.546875 -7.140625 L 5.9375 -7.140625 C 6.019531 -6.097656 6.351562 -5.300781 6.9375 -4.75 C 7.53125 -4.207031 8.257812 -3.9375 9.125 -3.9375 C 10.40625 -3.9375 11.296875 -4.472656 11.796875 -5.546875 L 17.25 -5.546875 C 16.96875 -4.453125 16.460938 -3.460938 15.734375 -2.578125 C 15.003906 -1.703125 14.085938 -1.015625 12.984375 -0.515625 C 11.890625 -0.015625 10.660156 0.234375 9.296875 0.234375 C 7.660156 0.234375 6.203125 -0.113281 4.921875 -0.8125 C 3.640625 -1.507812 2.640625 -2.507812 1.921875 -3.8125 C 1.203125 -5.113281 0.84375 -6.632812 0.84375 -8.375 C 0.84375 -10.113281 1.195312 -11.628906 1.90625 -12.921875 C 2.613281 -14.222656 3.609375 -15.222656 4.890625 -15.921875 C 6.171875 -16.628906 7.640625 -16.984375 9.296875 -16.984375 C 10.921875 -16.984375 12.363281 -16.640625 13.625 -15.953125 C 14.882812 -15.273438 15.867188 -14.304688 16.578125 -13.046875 C 17.285156 -11.785156 17.640625 -10.316406 17.640625 -8.640625 Z M 12.390625 -9.984375 C 12.390625 -10.867188 12.085938 -11.570312 11.484375 -12.09375 C 10.890625 -12.613281 10.140625 -12.875 9.234375 -12.875 C 8.378906 -12.875 7.65625 -12.625 7.0625 -12.125 C 6.476562 -11.625 6.113281 -10.910156 5.96875 -9.984375 Z M 12.390625 -9.984375 "/></g></g></g><g fill="#ff3fa3" fill-opacity="1"><g transform="translate(1096.287234, 480.402188)"><g><path d="M 8.671875 0.234375 C 7.210938 0.234375 5.910156 -0.015625 4.765625 -0.515625 C 3.628906 -1.015625 2.726562 -1.695312 2.0625 -2.5625 C 1.40625 -3.4375 1.035156 -4.410156 0.953125 -5.484375 L 6.03125 -5.484375 C 6.09375 -4.910156 6.363281 -4.441406 6.84375 -4.078125 C 7.320312 -3.722656 7.910156 -3.546875 8.609375 -3.546875 C 9.242188 -3.546875 9.738281 -3.671875 10.09375 -3.921875 C 10.445312 -4.171875 10.625 -4.492188 10.625 -4.890625 C 10.625 -5.367188 10.375 -5.722656 9.875 -5.953125 C 9.375 -6.179688 8.5625 -6.4375 7.4375 -6.71875 C 6.238281 -7 5.238281 -7.289062 4.4375 -7.59375 C 3.632812 -7.90625 2.941406 -8.394531 2.359375 -9.0625 C 1.785156 -9.738281 1.5 -10.648438 1.5 -11.796875 C 1.5 -12.753906 1.765625 -13.625 2.296875 -14.40625 C 2.828125 -15.195312 3.609375 -15.820312 4.640625 -16.28125 C 5.671875 -16.75 6.894531 -16.984375 8.3125 -16.984375 C 10.40625 -16.984375 12.054688 -16.460938 13.265625 -15.421875 C 14.484375 -14.378906 15.179688 -13 15.359375 -11.28125 L 10.625 -11.28125 C 10.539062 -11.863281 10.28125 -12.320312 9.84375 -12.65625 C 9.414062 -13 8.851562 -13.171875 8.15625 -13.171875 C 7.5625 -13.171875 7.101562 -13.054688 6.78125 -12.828125 C 6.457031 -12.597656 6.296875 -12.28125 6.296875 -11.875 C 6.296875 -11.394531 6.550781 -11.035156 7.0625 -10.796875 C 7.570312 -10.554688 8.367188 -10.316406 9.453125 -10.078125 C 10.691406 -9.753906 11.703125 -9.4375 12.484375 -9.125 C 13.265625 -8.820312 13.945312 -8.320312 14.53125 -7.625 C 15.125 -6.9375 15.429688 -6.015625 15.453125 -4.859375 C 15.453125 -3.878906 15.175781 -3.003906 14.625 -2.234375 C 14.070312 -1.460938 13.28125 -0.859375 12.25 -0.421875 C 11.21875 0.015625 10.023438 0.234375 8.671875 0.234375 Z M 8.671875 0.234375 "/></g></g></g><g fill="#ff3fa3" fill-opacity="1"><g transform="translate(1113.027216, 480.402188)"><g><path d="M 12.59375 -27.390625 L 12.59375 -23.25 L 8.40625 -23.25 L 8.40625 2.09375 L 12.59375 2.09375 L 12.59375 6.265625 L 3.59375 6.265625 L 3.59375 -27.390625 Z M 12.59375 -27.390625 "/></g></g></g><g fill="#ff3fa3" fill-opacity="1"><g transform="translate(1128.327199, 480.402188)"><g><path d="M 11.1875 -4.34375 L 11.1875 0 L 8.578125 0 C 6.722656 0 5.273438 -0.453125 4.234375 -1.359375 C 3.191406 -2.273438 2.671875 -3.757812 2.671875 -5.8125 L 2.671875 -12.484375 L 0.625 -12.484375 L 0.625 -16.734375 L 2.671875 -16.734375 L 2.671875 -20.8125 L 7.796875 -20.8125 L 7.796875 -16.734375 L 11.15625 -16.734375 L 11.15625 -12.484375 L 7.796875 -12.484375 L 7.796875 -5.765625 C 7.796875 -5.265625 7.914062 -4.898438 8.15625 -4.671875 C 8.394531 -4.453125 8.796875 -4.34375 9.359375 -4.34375 Z M 11.1875 -4.34375 "/></g></g></g><g fill="#ff3fa3" fill-opacity="1"><g transform="translate(1140.507191, 480.402188)"><g><path d="M 11.703125 6.265625 L 2.703125 6.265625 L 2.703125 2.09375 L 6.90625 2.09375 L 6.90625 -23.25 L 2.703125 -23.25 L 2.703125 -27.390625 L 11.703125 -27.390625 Z M 11.703125 6.265625 "/></g></g></g><g fill="#ff3fa3" fill-opacity="1"><g transform="translate(633.704281, 480.402188)"><g><path d="M 10.265625 -12.484375 L 7.5 -12.484375 L 7.5 0 L 2.375 0 L 2.375 -12.484375 L 0.515625 -12.484375 L 0.515625 -16.734375 L 2.375 -16.734375 L 2.375 -17.21875 C 2.375 -19.28125 2.960938 -20.84375 4.140625 -21.90625 C 5.316406 -22.976562 7.046875 -23.515625 9.328125 -23.515625 C 9.710938 -23.515625 9.992188 -23.503906 10.171875 -23.484375 L 10.171875 -19.140625 C 9.191406 -19.203125 8.5 -19.0625 8.09375 -18.71875 C 7.695312 -18.375 7.5 -17.765625 7.5 -16.890625 L 7.5 -16.734375 L 10.265625 -16.734375 Z M 10.265625 -12.484375 "/></g></g></g><g fill="#ff3fa3" fill-opacity="1"><g transform="translate(644.504275, 480.402188)"><g><path d="M 6.984375 -13.953125 C 7.585938 -14.867188 8.335938 -15.59375 9.234375 -16.125 C 10.140625 -16.65625 11.140625 -16.921875 12.234375 -16.921875 L 12.234375 -11.484375 L 10.828125 -11.484375 C 9.546875 -11.484375 8.582031 -11.207031 7.9375 -10.65625 C 7.300781 -10.113281 6.984375 -9.148438 6.984375 -7.765625 L 6.984375 0 L 1.859375 0 L 1.859375 -16.734375 L 6.984375 -16.734375 Z M 6.984375 -13.953125 "/></g></g></g><g fill="#ff3fa3" fill-opacity="1"><g transform="translate(657.34426, 480.402188)"><g><path d="M 0.84375 -8.40625 C 0.84375 -10.125 1.164062 -11.628906 1.8125 -12.921875 C 2.46875 -14.222656 3.351562 -15.222656 4.46875 -15.921875 C 5.59375 -16.628906 6.84375 -16.984375 8.21875 -16.984375 C 9.394531 -16.984375 10.425781 -16.742188 11.3125 -16.265625 C 12.207031 -15.785156 12.894531 -15.15625 13.375 -14.375 L 13.375 -16.734375 L 18.515625 -16.734375 L 18.515625 0 L 13.375 0 L 13.375 -2.375 C 12.875 -1.59375 12.175781 -0.960938 11.28125 -0.484375 C 10.394531 -0.00390625 9.363281 0.234375 8.1875 0.234375 C 6.832031 0.234375 5.59375 -0.117188 4.46875 -0.828125 C 3.351562 -1.535156 2.46875 -2.539062 1.8125 -3.84375 C 1.164062 -5.15625 0.84375 -6.675781 0.84375 -8.40625 Z M 13.375 -8.375 C 13.375 -9.65625 13.019531 -10.664062 12.3125 -11.40625 C 11.601562 -12.144531 10.738281 -12.515625 9.71875 -12.515625 C 8.695312 -12.515625 7.832031 -12.144531 7.125 -11.40625 C 6.414062 -10.675781 6.0625 -9.675781 6.0625 -8.40625 C 6.0625 -7.125 6.414062 -6.109375 7.125 -5.359375 C 7.832031 -4.609375 8.695312 -4.234375 9.71875 -4.234375 C 10.738281 -4.234375 11.601562 -4.601562 12.3125 -5.34375 C 13.019531 -6.082031 13.375 -7.09375 13.375 -8.375 Z M 13.375 -8.375 "/></g></g></g><g fill="#ff3fa3" fill-opacity="1"><g transform="translate(677.714239, 480.402188)"><g><path d="M 23.21875 -16.921875 C 25.300781 -16.921875 26.957031 -16.289062 28.1875 -15.03125 C 29.414062 -13.769531 30.03125 -12.019531 30.03125 -9.78125 L 30.03125 0 L 24.9375 0 L 24.9375 -9.09375 C 24.9375 -10.164062 24.648438 -11 24.078125 -11.59375 C 23.503906 -12.1875 22.71875 -12.484375 21.71875 -12.484375 C 20.71875 -12.484375 19.929688 -12.1875 19.359375 -11.59375 C 18.796875 -11 18.515625 -10.164062 18.515625 -9.09375 L 18.515625 0 L 13.40625 0 L 13.40625 -9.09375 C 13.40625 -10.164062 13.117188 -11 12.546875 -11.59375 C 11.984375 -12.1875 11.203125 -12.484375 10.203125 -12.484375 C 9.203125 -12.484375 8.414062 -12.1875 7.84375 -11.59375 C 7.269531 -11 6.984375 -10.164062 6.984375 -9.09375 L 6.984375 0 L 1.859375 0 L 1.859375 -16.734375 L 6.984375 -16.734375 L 6.984375 -14.640625 C 7.503906 -15.335938 8.1875 -15.890625 9.03125 -16.296875 C 9.875 -16.710938 10.820312 -16.921875 11.875 -16.921875 C 13.132812 -16.921875 14.257812 -16.648438 15.25 -16.109375 C 16.238281 -15.566406 17.015625 -14.796875 17.578125 -13.796875 C 18.160156 -14.722656 18.953125 -15.472656 19.953125 -16.046875 C 20.953125 -16.628906 22.039062 -16.921875 23.21875 -16.921875 Z M 23.21875 -16.921875 "/></g></g></g><g fill="#ff3fa3" fill-opacity="1"><g transform="translate(709.484203, 480.402188)"><g><path d="M 17.640625 -8.640625 C 17.640625 -8.160156 17.609375 -7.660156 17.546875 -7.140625 L 5.9375 -7.140625 C 6.019531 -6.097656 6.351562 -5.300781 6.9375 -4.75 C 7.53125 -4.207031 8.257812 -3.9375 9.125 -3.9375 C 10.40625 -3.9375 11.296875 -4.472656 11.796875 -5.546875 L 17.25 -5.546875 C 16.96875 -4.453125 16.460938 -3.460938 15.734375 -2.578125 C 15.003906 -1.703125 14.085938 -1.015625 12.984375 -0.515625 C 11.890625 -0.015625 10.660156 0.234375 9.296875 0.234375 C 7.660156 0.234375 6.203125 -0.113281 4.921875 -0.8125 C 3.640625 -1.507812 2.640625 -2.507812 1.921875 -3.8125 C 1.203125 -5.113281 0.84375 -6.632812 0.84375 -8.375 C 0.84375 -10.113281 1.195312 -11.628906 1.90625 -12.921875 C 2.613281 -14.222656 3.609375 -15.222656 4.890625 -15.921875 C 6.171875 -16.628906 7.640625 -16.984375 9.296875 -16.984375 C 10.921875 -16.984375 12.363281 -16.640625 13.625 -15.953125 C 14.882812 -15.273438 15.867188 -14.304688 16.578125 -13.046875 C 17.285156 -11.785156 17.640625 -10.316406 17.640625 -8.640625 Z M 12.390625 -9.984375 C 12.390625 -10.867188 12.085938 -11.570312 11.484375 -12.09375 C 10.890625 -12.613281 10.140625 -12.875 9.234375 -12.875 C 8.378906 -12.875 7.65625 -12.625 7.0625 -12.125 C 6.476562 -11.625 6.113281 -10.910156 5.96875 -9.984375 Z M 12.390625 -9.984375 "/></g></g></g><g fill="#ff3fa3" fill-opacity="1"><g transform="translate(727.96419, 480.402188)"><g><path d="M 8.671875 0.234375 C 7.210938 0.234375 5.910156 -0.015625 4.765625 -0.515625 C 3.628906 -1.015625 2.726562 -1.695312 2.0625 -2.5625 C 1.40625 -3.4375 1.035156 -4.410156 0.953125 -5.484375 L 6.03125 -5.484375 C 6.09375 -4.910156 6.363281 -4.441406 6.84375 -4.078125 C 7.320312 -3.722656 7.910156 -3.546875 8.609375 -3.546875 C 9.242188 -3.546875 9.738281 -3.671875 10.09375 -3.921875 C 10.445312 -4.171875 10.625 -4.492188 10.625 -4.890625 C 10.625 -5.367188 10.375 -5.722656 9.875 -5.953125 C 9.375 -6.179688 8.5625 -6.4375 7.4375 -6.71875 C 6.238281 -7 5.238281 -7.289062 4.4375 -7.59375 C 3.632812 -7.90625 2.941406 -8.394531 2.359375 -9.0625 C 1.785156 -9.738281 1.5 -10.648438 1.5 -11.796875 C 1.5 -12.753906 1.765625 -13.625 2.296875 -14.40625 C 2.828125 -15.195312 3.609375 -15.820312 4.640625 -16.28125 C 5.671875 -16.75 6.894531 -16.984375 8.3125 -16.984375 C 10.40625 -16.984375 12.054688 -16.460938 13.265625 -15.421875 C 14.484375 -14.378906 15.179688 -13 15.359375 -11.28125 L 10.625 -11.28125 C 10.539062 -11.863281 10.28125 -12.320312 9.84375 -12.65625 C 9.414062 -13 8.851562 -13.171875 8.15625 -13.171875 C 7.5625 -13.171875 7.101562 -13.054688 6.78125 -12.828125 C 6.457031 -12.597656 6.296875 -12.28125 6.296875 -11.875 C 6.296875 -11.394531 6.550781 -11.035156 7.0625 -10.796875 C 7.570312 -10.554688 8.367188 -10.316406 9.453125 -10.078125 C 10.691406 -9.753906 11.703125 -9.4375 12.484375 -9.125 C 13.265625 -8.820312 13.945312 -8.320312 14.53125 -7.625 C 15.125 -6.9375 15.429688 -6.015625 15.453125 -4.859375 C 15.453125 -3.878906 15.175781 -3.003906 14.625 -2.234375 C 14.070312 -1.460938 13.28125 -0.859375 12.25 -0.421875 C 11.21875 0.015625 10.023438 0.234375 8.671875 0.234375 Z M 8.671875 0.234375 "/></g></g></g><g fill="#ff3fa3" fill-opacity="1"><g transform="translate(744.704172, 480.402188)"><g><path d="M 12.59375 -27.390625 L 12.59375 -23.25 L 8.40625 -23.25 L 8.40625 2.09375 L 12.59375 2.09375 L 12.59375 6.265625 L 3.59375 6.265625 L 3.59375 -27.390625 Z M 12.59375 -27.390625 "/></g></g></g><g fill="#ff3fa3" fill-opacity="1"><g transform="translate(760.004156, 480.402188)"><g><path d="M 11.1875 -4.34375 L 11.1875 0 L 8.578125 0 C 6.722656 0 5.273438 -0.453125 4.234375 -1.359375 C 3.191406 -2.273438 2.671875 -3.757812 2.671875 -5.8125 L 2.671875 -12.484375 L 0.625 -12.484375 L 0.625 -16.734375 L 2.671875 -16.734375 L 2.671875 -20.8125 L 7.796875 -20.8125 L 7.796875 -16.734375 L 11.15625 -16.734375 L 11.15625 -12.484375 L 7.796875 -12.484375 L 7.796875 -5.765625 C 7.796875 -5.265625 7.914062 -4.898438 8.15625 -4.671875 C 8.394531 -4.453125 8.796875 -4.34375 9.359375 -4.34375 Z M 11.1875 -4.34375 "/></g></g></g><g fill="#ff3fa3" fill-opacity="1"><g transform="translate(772.184148, 480.402188)"><g><path d="M 14.765625 -12.65625 L 14.765625 -8.40625 L 1.5625 -8.40625 L 1.5625 -12.65625 Z M 14.765625 -12.65625 "/></g></g></g><g fill="#ff3fa3" fill-opacity="1"><g transform="translate(789.584133, 480.402188)"><g><path d="M 0.8125 -17.125 L 0.8125 -21.90625 L 9.125 -21.90625 L 9.125 0 L 3.78125 0 L 3.78125 -17.125 Z M 0.8125 -17.125 "/></g></g></g><g fill="#ff3fa3" fill-opacity="1"><g transform="translate(800.864128, 480.402188)"><g><path d="M 11.703125 6.265625 L 2.703125 6.265625 L 2.703125 2.09375 L 6.90625 2.09375 L 6.90625 -23.25 L 2.703125 -23.25 L 2.703125 -27.390625 L 11.703125 -27.390625 Z M 11.703125 6.265625 "/></g></g></g><g fill="#ff3fa3" fill-opacity="1"><g transform="translate(266.924232, 480.402188)"><g><path d="M 10.265625 -12.484375 L 7.5 -12.484375 L 7.5 0 L 2.375 0 L 2.375 -12.484375 L 0.515625 -12.484375 L 0.515625 -16.734375 L 2.375 -16.734375 L 2.375 -17.21875 C 2.375 -19.28125 2.960938 -20.84375 4.140625 -21.90625 C 5.316406 -22.976562 7.046875 -23.515625 9.328125 -23.515625 C 9.710938 -23.515625 9.992188 -23.503906 10.171875 -23.484375 L 10.171875 -19.140625 C 9.191406 -19.203125 8.5 -19.0625 8.09375 -18.71875 C 7.695312 -18.375 7.5 -17.765625 7.5 -16.890625 L 7.5 -16.734375 L 10.265625 -16.734375 Z M 10.265625 -12.484375 "/></g></g></g><g fill="#ff3fa3" fill-opacity="1"><g transform="translate(277.724226, 480.402188)"><g><path d="M 6.984375 -13.953125 C 7.585938 -14.867188 8.335938 -15.59375 9.234375 -16.125 C 10.140625 -16.65625 11.140625 -16.921875 12.234375 -16.921875 L 12.234375 -11.484375 L 10.828125 -11.484375 C 9.546875 -11.484375 8.582031 -11.207031 7.9375 -10.65625 C 7.300781 -10.113281 6.984375 -9.148438 6.984375 -7.765625 L 6.984375 0 L 1.859375 0 L 1.859375 -16.734375 L 6.984375 -16.734375 Z M 6.984375 -13.953125 "/></g></g></g><g fill="#ff3fa3" fill-opacity="1"><g transform="translate(290.564211, 480.402188)"><g><path d="M 0.84375 -8.40625 C 0.84375 -10.125 1.164062 -11.628906 1.8125 -12.921875 C 2.46875 -14.222656 3.351562 -15.222656 4.46875 -15.921875 C 5.59375 -16.628906 6.84375 -16.984375 8.21875 -16.984375 C 9.394531 -16.984375 10.425781 -16.742188 11.3125 -16.265625 C 12.207031 -15.785156 12.894531 -15.15625 13.375 -14.375 L 13.375 -16.734375 L 18.515625 -16.734375 L 18.515625 0 L 13.375 0 L 13.375 -2.375 C 12.875 -1.59375 12.175781 -0.960938 11.28125 -0.484375 C 10.394531 -0.00390625 9.363281 0.234375 8.1875 0.234375 C 6.832031 0.234375 5.59375 -0.117188 4.46875 -0.828125 C 3.351562 -1.535156 2.46875 -2.539062 1.8125 -3.84375 C 1.164062 -5.15625 0.84375 -6.675781 0.84375 -8.40625 Z M 13.375 -8.375 C 13.375 -9.65625 13.019531 -10.664062 12.3125 -11.40625 C 11.601562 -12.144531 10.738281 -12.515625 9.71875 -12.515625 C 8.695312 -12.515625 7.832031 -12.144531 7.125 -11.40625 C 6.414062 -10.675781 6.0625 -9.675781 6.0625 -8.40625 C 6.0625 -7.125 6.414062 -6.109375 7.125 -5.359375 C 7.832031 -4.609375 8.695312 -4.234375 9.71875 -4.234375 C 10.738281 -4.234375 11.601562 -4.601562 12.3125 -5.34375 C 13.019531 -6.082031 13.375 -7.09375 13.375 -8.375 Z M 13.375 -8.375 "/></g></g></g><g fill="#ff3fa3" fill-opacity="1"><g transform="translate(310.93419, 480.402188)"><g><path d="M 23.21875 -16.921875 C 25.300781 -16.921875 26.957031 -16.289062 28.1875 -15.03125 C 29.414062 -13.769531 30.03125 -12.019531 30.03125 -9.78125 L 30.03125 0 L 24.9375 0 L 24.9375 -9.09375 C 24.9375 -10.164062 24.648438 -11 24.078125 -11.59375 C 23.503906 -12.1875 22.71875 -12.484375 21.71875 -12.484375 C 20.71875 -12.484375 19.929688 -12.1875 19.359375 -11.59375 C 18.796875 -11 18.515625 -10.164062 18.515625 -9.09375 L 18.515625 0 L 13.40625 0 L 13.40625 -9.09375 C 13.40625 -10.164062 13.117188 -11 12.546875 -11.59375 C 11.984375 -12.1875 11.203125 -12.484375 10.203125 -12.484375 C 9.203125 -12.484375 8.414062 -12.1875 7.84375 -11.59375 C 7.269531 -11 6.984375 -10.164062 6.984375 -9.09375 L 6.984375 0 L 1.859375 0 L 1.859375 -16.734375 L 6.984375 -16.734375 L 6.984375 -14.640625 C 7.503906 -15.335938 8.1875 -15.890625 9.03125 -16.296875 C 9.875 -16.710938 10.820312 -16.921875 11.875 -16.921875 C 13.132812 -16.921875 14.257812 -16.648438 15.25 -16.109375 C 16.238281 -15.566406 17.015625 -14.796875 17.578125 -13.796875 C 18.160156 -14.722656 18.953125 -15.472656 19.953125 -16.046875 C 20.953125 -16.628906 22.039062 -16.921875 23.21875 -16.921875 Z M 23.21875 -16.921875 "/></g></g></g><g fill="#ff3fa3" fill-opacity="1"><g transform="translate(342.704154, 480.402188)"><g><path d="M 17.640625 -8.640625 C 17.640625 -8.160156 17.609375 -7.660156 17.546875 -7.140625 L 5.9375 -7.140625 C 6.019531 -6.097656 6.351562 -5.300781 6.9375 -4.75 C 7.53125 -4.207031 8.257812 -3.9375 9.125 -3.9375 C 10.40625 -3.9375 11.296875 -4.472656 11.796875 -5.546875 L 17.25 -5.546875 C 16.96875 -4.453125 16.460938 -3.460938 15.734375 -2.578125 C 15.003906 -1.703125 14.085938 -1.015625 12.984375 -0.515625 C 11.890625 -0.015625 10.660156 0.234375 9.296875 0.234375 C 7.660156 0.234375 6.203125 -0.113281 4.921875 -0.8125 C 3.640625 -1.507812 2.640625 -2.507812 1.921875 -3.8125 C 1.203125 -5.113281 0.84375 -6.632812 0.84375 -8.375 C 0.84375 -10.113281 1.195312 -11.628906 1.90625 -12.921875 C 2.613281 -14.222656 3.609375 -15.222656 4.890625 -15.921875 C 6.171875 -16.628906 7.640625 -16.984375 9.296875 -16.984375 C 10.921875 -16.984375 12.363281 -16.640625 13.625 -15.953125 C 14.882812 -15.273438 15.867188 -14.304688 16.578125 -13.046875 C 17.285156 -11.785156 17.640625 -10.316406 17.640625 -8.640625 Z M 12.390625 -9.984375 C 12.390625 -10.867188 12.085938 -11.570312 11.484375 -12.09375 C 10.890625 -12.613281 10.140625 -12.875 9.234375 -12.875 C 8.378906 -12.875 7.65625 -12.625 7.0625 -12.125 C 6.476562 -11.625 6.113281 -10.910156 5.96875 -9.984375 Z M 12.390625 -9.984375 "/></g></g></g><g fill="#ff3fa3" fill-opacity="1"><g transform="translate(361.184141, 480.402188)"><g><path d="M 8.671875 0.234375 C 7.210938 0.234375 5.910156 -0.015625 4.765625 -0.515625 C 3.628906 -1.015625 2.726562 -1.695312 2.0625 -2.5625 C 1.40625 -3.4375 1.035156 -4.410156 0.953125 -5.484375 L 6.03125 -5.484375 C 6.09375 -4.910156 6.363281 -4.441406 6.84375 -4.078125 C 7.320312 -3.722656 7.910156 -3.546875 8.609375 -3.546875 C 9.242188 -3.546875 9.738281 -3.671875 10.09375 -3.921875 C 10.445312 -4.171875 10.625 -4.492188 10.625 -4.890625 C 10.625 -5.367188 10.375 -5.722656 9.875 -5.953125 C 9.375 -6.179688 8.5625 -6.4375 7.4375 -6.71875 C 6.238281 -7 5.238281 -7.289062 4.4375 -7.59375 C 3.632812 -7.90625 2.941406 -8.394531 2.359375 -9.0625 C 1.785156 -9.738281 1.5 -10.648438 1.5 -11.796875 C 1.5 -12.753906 1.765625 -13.625 2.296875 -14.40625 C 2.828125 -15.195312 3.609375 -15.820312 4.640625 -16.28125 C 5.671875 -16.75 6.894531 -16.984375 8.3125 -16.984375 C 10.40625 -16.984375 12.054688 -16.460938 13.265625 -15.421875 C 14.484375 -14.378906 15.179688 -13 15.359375 -11.28125 L 10.625 -11.28125 C 10.539062 -11.863281 10.28125 -12.320312 9.84375 -12.65625 C 9.414062 -13 8.851562 -13.171875 8.15625 -13.171875 C 7.5625 -13.171875 7.101562 -13.054688 6.78125 -12.828125 C 6.457031 -12.597656 6.296875 -12.28125 6.296875 -11.875 C 6.296875 -11.394531 6.550781 -11.035156 7.0625 -10.796875 C 7.570312 -10.554688 8.367188 -10.316406 9.453125 -10.078125 C 10.691406 -9.753906 11.703125 -9.4375 12.484375 -9.125 C 13.265625 -8.820312 13.945312 -8.320312 14.53125 -7.625 C 15.125 -6.9375 15.429688 -6.015625 15.453125 -4.859375 C 15.453125 -3.878906 15.175781 -3.003906 14.625 -2.234375 C 14.070312 -1.460938 13.28125 -0.859375 12.25 -0.421875 C 11.21875 0.015625 10.023438 0.234375 8.671875 0.234375 Z M 8.671875 0.234375 "/></g></g></g><g fill="#ff3fa3" fill-opacity="1"><g transform="translate(377.924123, 480.402188)"><g><path d="M 12.59375 -27.390625 L 12.59375 -23.25 L 8.40625 -23.25 L 8.40625 2.09375 L 12.59375 2.09375 L 12.59375 6.265625 L 3.59375 6.265625 L 3.59375 -27.390625 Z M 12.59375 -27.390625 "/></g></g></g><g fill="#ff3fa3" fill-opacity="1"><g transform="translate(393.224107, 480.402188)"><g><path d="M 11.1875 -4.34375 L 11.1875 0 L 8.578125 0 C 6.722656 0 5.273438 -0.453125 4.234375 -1.359375 C 3.191406 -2.273438 2.671875 -3.757812 2.671875 -5.8125 L 2.671875 -12.484375 L 0.625 -12.484375 L 0.625 -16.734375 L 2.671875 -16.734375 L 2.671875 -20.8125 L 7.796875 -20.8125 L 7.796875 -16.734375 L 11.15625 -16.734375 L 11.15625 -12.484375 L 7.796875 -12.484375 L 7.796875 -5.765625 C 7.796875 -5.265625 7.914062 -4.898438 8.15625 -4.671875 C 8.394531 -4.453125 8.796875 -4.34375 9.359375 -4.34375 Z M 11.1875 -4.34375 "/></g></g></g><g fill="#ff3fa3" fill-opacity="1"><g transform="translate(405.404099, 480.402188)"><g><path d="M 14.765625 -12.65625 L 14.765625 -8.40625 L 1.5625 -8.40625 L 1.5625 -12.65625 Z M 14.765625 -12.65625 "/></g></g></g><g fill="#ff3fa3" fill-opacity="1"><g transform="translate(422.804084, 480.402188)"><g><path d="M 1.171875 -4.109375 C 1.847656 -4.648438 2.15625 -4.898438 2.09375 -4.859375 C 4.0625 -6.484375 5.609375 -7.8125 6.734375 -8.84375 C 7.867188 -9.882812 8.820312 -10.972656 9.59375 -12.109375 C 10.375 -13.253906 10.765625 -14.367188 10.765625 -15.453125 C 10.765625 -16.273438 10.570312 -16.914062 10.1875 -17.375 C 9.8125 -17.832031 9.242188 -18.0625 8.484375 -18.0625 C 7.722656 -18.0625 7.128906 -17.773438 6.703125 -17.203125 C 6.273438 -16.628906 6.0625 -15.828125 6.0625 -14.796875 L 1.109375 -14.796875 C 1.148438 -16.492188 1.515625 -17.910156 2.203125 -19.046875 C 2.890625 -20.191406 3.796875 -21.03125 4.921875 -21.5625 C 6.054688 -22.101562 7.316406 -22.375 8.703125 -22.375 C 11.078125 -22.375 12.867188 -21.765625 14.078125 -20.546875 C 15.296875 -19.328125 15.90625 -17.738281 15.90625 -15.78125 C 15.90625 -13.632812 15.171875 -11.644531 13.703125 -9.8125 C 12.242188 -7.988281 10.382812 -6.207031 8.125 -4.46875 L 16.234375 -4.46875 L 16.234375 -0.296875 L 1.171875 -0.296875 Z M 1.171875 -4.109375 "/></g></g></g><g fill="#ff3fa3" fill-opacity="1"><g transform="translate(439.934069, 480.402188)"><g><path d="M 11.703125 6.265625 L 2.703125 6.265625 L 2.703125 2.09375 L 6.90625 2.09375 L 6.90625 -23.25 L 2.703125 -23.25 L 2.703125 -27.390625 L 11.703125 -27.390625 Z M 11.703125 6.265625 "/></g></g></g><g fill="#ff3fa3" fill-opacity="1"><g transform="translate(338.514072, 543.730769)"><g><path d="M 1.34375 -11.25 C 1.34375 -14.6875 2.007812 -17.394531 3.34375 -19.375 C 4.675781 -21.351562 6.820312 -22.34375 9.78125 -22.34375 C 12.738281 -22.34375 14.878906 -21.351562 16.203125 -19.375 C 17.535156 -17.394531 18.203125 -14.6875 18.203125 -11.25 C 18.203125 -7.769531 17.535156 -5.039062 16.203125 -3.0625 C 14.878906 -1.082031 12.738281 -0.09375 9.78125 -0.09375 C 6.820312 -0.09375 4.675781 -1.082031 3.34375 -3.0625 C 2.007812 -5.039062 1.34375 -7.769531 1.34375 -11.25 Z M 13.171875 -11.25 C 13.171875 -13.269531 12.945312 -14.820312 12.5 -15.90625 C 12.0625 -17 11.15625 -17.546875 9.78125 -17.546875 C 8.394531 -17.546875 7.484375 -17 7.046875 -15.90625 C 6.609375 -14.820312 6.390625 -13.269531 6.390625 -11.25 C 6.390625 -9.882812 6.46875 -8.757812 6.625 -7.875 C 6.789062 -6.988281 7.117188 -6.269531 7.609375 -5.71875 C 8.097656 -5.164062 8.820312 -4.890625 9.78125 -4.890625 C 10.738281 -4.890625 11.460938 -5.164062 11.953125 -5.71875 C 12.441406 -6.269531 12.765625 -6.988281 12.921875 -7.875 C 13.085938 -8.757812 13.171875 -9.882812 13.171875 -11.25 Z M 13.171875 -11.25 "/></g></g></g><g fill="#ff3fa3" fill-opacity="1"><g transform="translate(358.074049, 543.730769)"><g><path d="M 4.265625 0.234375 C 3.359375 0.234375 2.617188 -0.0234375 2.046875 -0.546875 C 1.484375 -1.078125 1.203125 -1.734375 1.203125 -2.515625 C 1.203125 -3.316406 1.484375 -3.988281 2.046875 -4.53125 C 2.617188 -5.070312 3.359375 -5.34375 4.265625 -5.34375 C 5.140625 -5.34375 5.863281 -5.070312 6.4375 -4.53125 C 7.007812 -3.988281 7.296875 -3.316406 7.296875 -2.515625 C 7.296875 -1.734375 7.007812 -1.078125 6.4375 -0.546875 C 5.863281 -0.0234375 5.140625 0.234375 4.265625 0.234375 Z M 4.265625 0.234375 "/></g></g></g><g fill="#ff3fa3" fill-opacity="1"><g transform="translate(366.534036, 543.730769)"><g><path d="M 1.171875 -4.109375 C 1.847656 -4.648438 2.15625 -4.898438 2.09375 -4.859375 C 4.0625 -6.484375 5.609375 -7.8125 6.734375 -8.84375 C 7.867188 -9.882812 8.820312 -10.972656 9.59375 -12.109375 C 10.375 -13.253906 10.765625 -14.367188 10.765625 -15.453125 C 10.765625 -16.273438 10.570312 -16.914062 10.1875 -17.375 C 9.8125 -17.832031 9.242188 -18.0625 8.484375 -18.0625 C 7.722656 -18.0625 7.128906 -17.773438 6.703125 -17.203125 C 6.273438 -16.628906 6.0625 -15.828125 6.0625 -14.796875 L 1.109375 -14.796875 C 1.148438 -16.492188 1.515625 -17.910156 2.203125 -19.046875 C 2.890625 -20.191406 3.796875 -21.03125 4.921875 -21.5625 C 6.054688 -22.101562 7.316406 -22.375 8.703125 -22.375 C 11.078125 -22.375 12.867188 -21.765625 14.078125 -20.546875 C 15.296875 -19.328125 15.90625 -17.738281 15.90625 -15.78125 C 15.90625 -13.632812 15.171875 -11.644531 13.703125 -9.8125 C 12.242188 -7.988281 10.382812 -6.207031 8.125 -4.46875 L 16.234375 -4.46875 L 16.234375 -0.296875 L 1.171875 -0.296875 Z M 1.171875 -4.109375 "/></g></g></g><g fill="#ff3fa3" fill-opacity="1"><g transform="translate(701.848808, 543.730769)"><g><path d="M 1.34375 -11.25 C 1.34375 -14.6875 2.007812 -17.394531 3.34375 -19.375 C 4.675781 -21.351562 6.820312 -22.34375 9.78125 -22.34375 C 12.738281 -22.34375 14.878906 -21.351562 16.203125 -19.375 C 17.535156 -17.394531 18.203125 -14.6875 18.203125 -11.25 C 18.203125 -7.769531 17.535156 -5.039062 16.203125 -3.0625 C 14.878906 -1.082031 12.738281 -0.09375 9.78125 -0.09375 C 6.820312 -0.09375 4.675781 -1.082031 3.34375 -3.0625 C 2.007812 -5.039062 1.34375 -7.769531 1.34375 -11.25 Z M 13.171875 -11.25 C 13.171875 -13.269531 12.945312 -14.820312 12.5 -15.90625 C 12.0625 -17 11.15625 -17.546875 9.78125 -17.546875 C 8.394531 -17.546875 7.484375 -17 7.046875 -15.90625 C 6.609375 -14.820312 6.390625 -13.269531 6.390625 -11.25 C 6.390625 -9.882812 6.46875 -8.757812 6.625 -7.875 C 6.789062 -6.988281 7.117188 -6.269531 7.609375 -5.71875 C 8.097656 -5.164062 8.820312 -4.890625 9.78125 -4.890625 C 10.738281 -4.890625 11.460938 -5.164062 11.953125 -5.71875 C 12.441406 -6.269531 12.765625 -6.988281 12.921875 -7.875 C 13.085938 -8.757812 13.171875 -9.882812 13.171875 -11.25 Z M 13.171875 -11.25 "/></g></g></g><g fill="#ff3fa3" fill-opacity="1"><g transform="translate(721.408786, 543.730769)"><g><path d="M 4.265625 0.234375 C 3.359375 0.234375 2.617188 -0.0234375 2.046875 -0.546875 C 1.484375 -1.078125 1.203125 -1.734375 1.203125 -2.515625 C 1.203125 -3.316406 1.484375 -3.988281 2.046875 -4.53125 C 2.617188 -5.070312 3.359375 -5.34375 4.265625 -5.34375 C 5.140625 -5.34375 5.863281 -5.070312 6.4375 -4.53125 C 7.007812 -3.988281 7.296875 -3.316406 7.296875 -2.515625 C 7.296875 -1.734375 7.007812 -1.078125 6.4375 -0.546875 C 5.863281 -0.0234375 5.140625 0.234375 4.265625 0.234375 Z M 4.265625 0.234375 "/></g></g></g><g fill="#ff3fa3" fill-opacity="1"><g transform="translate(729.868773, 543.730769)"><g><path d="M 1.53125 -15.71875 C 1.613281 -17.863281 2.3125 -19.515625 3.625 -20.671875 C 4.945312 -21.828125 6.738281 -22.40625 9 -22.40625 C 10.5 -22.40625 11.78125 -22.144531 12.84375 -21.625 C 13.914062 -21.101562 14.726562 -20.394531 15.28125 -19.5 C 15.832031 -18.601562 16.109375 -17.59375 16.109375 -16.46875 C 16.109375 -15.144531 15.773438 -14.066406 15.109375 -13.234375 C 14.453125 -12.410156 13.6875 -11.847656 12.8125 -11.546875 L 12.8125 -11.4375 C 13.945312 -11.050781 14.84375 -10.414062 15.5 -9.53125 C 16.164062 -8.65625 16.5 -7.53125 16.5 -6.15625 C 16.5 -4.914062 16.210938 -3.816406 15.640625 -2.859375 C 15.078125 -1.910156 14.25 -1.164062 13.15625 -0.625 C 12.0625 -0.0820312 10.765625 0.1875 9.265625 0.1875 C 6.867188 0.1875 4.953125 -0.398438 3.515625 -1.578125 C 2.085938 -2.765625 1.335938 -4.550781 1.265625 -6.9375 L 6.234375 -6.9375 C 6.253906 -6.050781 6.503906 -5.351562 6.984375 -4.84375 C 7.460938 -4.332031 8.164062 -4.078125 9.09375 -4.078125 C 9.875 -4.078125 10.476562 -4.300781 10.90625 -4.75 C 11.332031 -5.207031 11.546875 -5.804688 11.546875 -6.546875 C 11.546875 -7.503906 11.238281 -8.195312 10.625 -8.625 C 10.019531 -9.050781 9.046875 -9.265625 7.703125 -9.265625 L 6.75 -9.265625 L 6.75 -13.4375 L 7.703125 -13.4375 C 8.722656 -13.4375 9.546875 -13.609375 10.171875 -13.953125 C 10.804688 -14.304688 11.125 -14.9375 11.125 -15.84375 C 11.125 -16.5625 10.925781 -17.117188 10.53125 -17.515625 C 10.132812 -17.921875 9.582031 -18.125 8.875 -18.125 C 8.113281 -18.125 7.546875 -17.890625 7.171875 -17.421875 C 6.804688 -16.960938 6.597656 -16.394531 6.546875 -15.71875 Z M 1.53125 -15.71875 "/></g></g></g><g fill="#ff3fa3" fill-opacity="1"><g transform="translate(1055.148415, 543.730769)"><g><path d="M 1.34375 -11.25 C 1.34375 -14.6875 2.007812 -17.394531 3.34375 -19.375 C 4.675781 -21.351562 6.820312 -22.34375 9.78125 -22.34375 C 12.738281 -22.34375 14.878906 -21.351562 16.203125 -19.375 C 17.535156 -17.394531 18.203125 -14.6875 18.203125 -11.25 C 18.203125 -7.769531 17.535156 -5.039062 16.203125 -3.0625 C 14.878906 -1.082031 12.738281 -0.09375 9.78125 -0.09375 C 6.820312 -0.09375 4.675781 -1.082031 3.34375 -3.0625 C 2.007812 -5.039062 1.34375 -7.769531 1.34375 -11.25 Z M 13.171875 -11.25 C 13.171875 -13.269531 12.945312 -14.820312 12.5 -15.90625 C 12.0625 -17 11.15625 -17.546875 9.78125 -17.546875 C 8.394531 -17.546875 7.484375 -17 7.046875 -15.90625 C 6.609375 -14.820312 6.390625 -13.269531 6.390625 -11.25 C 6.390625 -9.882812 6.46875 -8.757812 6.625 -7.875 C 6.789062 -6.988281 7.117188 -6.269531 7.609375 -5.71875 C 8.097656 -5.164062 8.820312 -4.890625 9.78125 -4.890625 C 10.738281 -4.890625 11.460938 -5.164062 11.953125 -5.71875 C 12.441406 -6.269531 12.765625 -6.988281 12.921875 -7.875 C 13.085938 -8.757812 13.171875 -9.882812 13.171875 -11.25 Z M 13.171875 -11.25 "/></g></g></g><g fill="#ff3fa3" fill-opacity="1"><g transform="translate(1074.708392, 543.730769)"><g><path d="M 4.265625 0.234375 C 3.359375 0.234375 2.617188 -0.0234375 2.046875 -0.546875 C 1.484375 -1.078125 1.203125 -1.734375 1.203125 -2.515625 C 1.203125 -3.316406 1.484375 -3.988281 2.046875 -4.53125 C 2.617188 -5.070312 3.359375 -5.34375 4.265625 -5.34375 C 5.140625 -5.34375 5.863281 -5.070312 6.4375 -4.53125 C 7.007812 -3.988281 7.296875 -3.316406 7.296875 -2.515625 C 7.296875 -1.734375 7.007812 -1.078125 6.4375 -0.546875 C 5.863281 -0.0234375 5.140625 0.234375 4.265625 0.234375 Z M 4.265625 0.234375 "/></g></g></g><g fill="#ff3fa3" fill-opacity="1"><g transform="translate(1083.16838, 543.730769)"><g><path d="M 16.765625 -17.4375 L 7.40625 -17.4375 L 7.40625 -13.296875 C 7.8125 -13.734375 8.375 -14.09375 9.09375 -14.375 C 9.8125 -14.65625 10.59375 -14.796875 11.4375 -14.796875 C 12.9375 -14.796875 14.179688 -14.453125 15.171875 -13.765625 C 16.160156 -13.085938 16.882812 -12.207031 17.34375 -11.125 C 17.800781 -10.050781 18.03125 -8.882812 18.03125 -7.625 C 18.03125 -5.28125 17.367188 -3.421875 16.046875 -2.046875 C 14.722656 -0.679688 12.863281 0 10.46875 0 C 8.863281 0 7.472656 -0.273438 6.296875 -0.828125 C 5.117188 -1.378906 4.207031 -2.144531 3.5625 -3.125 C 2.925781 -4.101562 2.578125 -5.234375 2.515625 -6.515625 L 7.53125 -6.515625 C 7.644531 -5.890625 7.929688 -5.367188 8.390625 -4.953125 C 8.859375 -4.546875 9.492188 -4.34375 10.296875 -4.34375 C 11.234375 -4.34375 11.929688 -4.644531 12.390625 -5.25 C 12.847656 -5.851562 13.078125 -6.65625 13.078125 -7.65625 C 13.078125 -8.632812 12.835938 -9.382812 12.359375 -9.90625 C 11.878906 -10.425781 11.179688 -10.6875 10.265625 -10.6875 C 9.578125 -10.6875 9.015625 -10.519531 8.578125 -10.1875 C 8.140625 -9.851562 7.847656 -9.414062 7.703125 -8.875 L 2.765625 -8.875 L 2.765625 -21.9375 L 16.765625 -21.9375 Z M 16.765625 -17.4375 "/></g></g></g><g fill="#ff3fa3" fill-opacity="1"><g transform="translate(520.511531, 547.454056)"><g><path d="M 36.6875 -17.609375 L 25.46875 -17.609375 L 25.46875 -6.125 L 15.03125 -6.125 L 15.03125 -17.609375 L 3.796875 -17.609375 L 3.796875 -27.46875 L 15.03125 -27.46875 L 15.03125 -39.015625 L 25.46875 -39.015625 L 25.46875 -27.46875 L 36.6875 -27.46875 Z M 36.6875 -17.609375 "/></g></g></g><g fill="#ff3fa3" fill-opacity="1"><g transform="translate(879.740825, 548.954056)"><g><path d="M 36.6875 -17.609375 L 25.46875 -17.609375 L 25.46875 -6.125 L 15.03125 -6.125 L 15.03125 -17.609375 L 3.796875 -17.609375 L 3.796875 -27.46875 L 15.03125 -27.46875 L 15.03125 -39.015625 L 25.46875 -39.015625 L 25.46875 -27.46875 L 36.6875 -27.46875 Z M 36.6875 -17.609375 "/></g></g></g><g fill="#ff3fa3" fill-opacity="1"><g transform="translate(84.125239, 258.477662)"><g><path d="M 15.5625 -21.0625 L 15.5625 -16.953125 L 6.984375 -16.953125 L 6.984375 -12.515625 L 13.40625 -12.515625 L 13.40625 -8.515625 L 6.984375 -8.515625 L 6.984375 0 L 1.859375 0 L 1.859375 -21.0625 Z M 15.5625 -21.0625 "/></g></g></g><g fill="#ff3fa3" fill-opacity="1"><g transform="translate(100.535218, 258.477662)"><g><path d="M 4.4375 -18.484375 C 3.539062 -18.484375 2.804688 -18.742188 2.234375 -19.265625 C 1.660156 -19.796875 1.375 -20.453125 1.375 -21.234375 C 1.375 -22.035156 1.660156 -22.703125 2.234375 -23.234375 C 2.804688 -23.765625 3.539062 -24.03125 4.4375 -24.03125 C 5.320312 -24.03125 6.046875 -23.765625 6.609375 -23.234375 C 7.179688 -22.703125 7.46875 -22.035156 7.46875 -21.234375 C 7.46875 -20.453125 7.179688 -19.796875 6.609375 -19.265625 C 6.046875 -18.742188 5.320312 -18.484375 4.4375 -18.484375 Z M 6.984375 -16.734375 L 6.984375 0 L 1.859375 0 L 1.859375 -16.734375 Z M 6.984375 -16.734375 "/></g></g></g><g fill="#ff3fa3" fill-opacity="1"><g transform="translate(109.385209, 258.477662)"><g><path d="M 12.0625 -16.921875 C 14.019531 -16.921875 15.582031 -16.285156 16.75 -15.015625 C 17.925781 -13.742188 18.515625 -12 18.515625 -9.78125 L 18.515625 0 L 13.40625 0 L 13.40625 -9.09375 C 13.40625 -10.207031 13.113281 -11.070312 12.53125 -11.6875 C 11.957031 -12.3125 11.179688 -12.625 10.203125 -12.625 C 9.222656 -12.625 8.441406 -12.3125 7.859375 -11.6875 C 7.273438 -11.070312 6.984375 -10.207031 6.984375 -9.09375 L 6.984375 0 L 1.859375 0 L 1.859375 -16.734375 L 6.984375 -16.734375 L 6.984375 -14.515625 C 7.503906 -15.253906 8.203125 -15.835938 9.078125 -16.265625 C 9.960938 -16.703125 10.957031 -16.921875 12.0625 -16.921875 Z M 12.0625 -16.921875 "/></g></g></g><g fill="#ff3fa3" fill-opacity="1"><g transform="translate(129.60519, 258.477662)"><g><path d="M 0.84375 -8.40625 C 0.84375 -10.125 1.164062 -11.628906 1.8125 -12.921875 C 2.46875 -14.222656 3.351562 -15.222656 4.46875 -15.921875 C 5.59375 -16.628906 6.84375 -16.984375 8.21875 -16.984375 C 9.394531 -16.984375 10.425781 -16.742188 11.3125 -16.265625 C 12.207031 -15.785156 12.894531 -15.15625 13.375 -14.375 L 13.375 -16.734375 L 18.515625 -16.734375 L 18.515625 0 L 13.375 0 L 13.375 -2.375 C 12.875 -1.59375 12.175781 -0.960938 11.28125 -0.484375 C 10.394531 -0.00390625 9.363281 0.234375 8.1875 0.234375 C 6.832031 0.234375 5.59375 -0.117188 4.46875 -0.828125 C 3.351562 -1.535156 2.46875 -2.539062 1.8125 -3.84375 C 1.164062 -5.15625 0.84375 -6.675781 0.84375 -8.40625 Z M 13.375 -8.375 C 13.375 -9.65625 13.019531 -10.664062 12.3125 -11.40625 C 11.601562 -12.144531 10.738281 -12.515625 9.71875 -12.515625 C 8.695312 -12.515625 7.832031 -12.144531 7.125 -11.40625 C 6.414062 -10.675781 6.0625 -9.675781 6.0625 -8.40625 C 6.0625 -7.125 6.414062 -6.109375 7.125 -5.359375 C 7.832031 -4.609375 8.695312 -4.234375 9.71875 -4.234375 C 10.738281 -4.234375 11.601562 -4.601562 12.3125 -5.34375 C 13.019531 -6.082031 13.375 -7.09375 13.375 -8.375 Z M 13.375 -8.375 "/></g></g></g><g fill="#ff3fa3" fill-opacity="1"><g transform="translate(149.975169, 258.477662)"><g><path d="M 6.984375 -22.203125 L 6.984375 0 L 1.859375 0 L 1.859375 -22.203125 Z M 6.984375 -22.203125 "/></g></g></g><g fill="#ff3fa3" fill-opacity="1"><g transform="translate(158.825159, 258.477662)"><g/></g></g><g fill="#ff3fa3" fill-opacity="1"><g transform="translate(165.185155, 258.477662)"><g><path d="M 14.96875 -3.71875 L 7.109375 -3.71875 L 5.84375 0 L 0.484375 0 L 8.09375 -21.0625 L 14.046875 -21.0625 L 21.65625 0 L 16.234375 0 Z M 13.65625 -7.6875 L 11.046875 -15.390625 L 8.453125 -7.6875 Z M 13.65625 -7.6875 "/></g></g></g><g fill="#ff3fa3" fill-opacity="1"><g transform="translate(187.295128, 258.477662)"><g><path d="M 6.984375 -14.375 C 7.484375 -15.15625 8.171875 -15.785156 9.046875 -16.265625 C 9.929688 -16.742188 10.96875 -16.984375 12.15625 -16.984375 C 13.53125 -16.984375 14.773438 -16.628906 15.890625 -15.921875 C 17.015625 -15.222656 17.898438 -14.222656 18.546875 -12.921875 C 19.203125 -11.628906 19.53125 -10.125 19.53125 -8.40625 C 19.53125 -6.675781 19.203125 -5.15625 18.546875 -3.84375 C 17.898438 -2.539062 17.015625 -1.535156 15.890625 -0.828125 C 14.773438 -0.117188 13.53125 0.234375 12.15625 0.234375 C 10.988281 0.234375 9.957031 -0.00390625 9.0625 -0.484375 C 8.175781 -0.960938 7.484375 -1.582031 6.984375 -2.34375 L 6.984375 7.984375 L 1.859375 7.984375 L 1.859375 -16.734375 L 6.984375 -16.734375 Z M 14.3125 -8.40625 C 14.3125 -9.675781 13.957031 -10.675781 13.25 -11.40625 C 12.539062 -12.144531 11.664062 -12.515625 10.625 -12.515625 C 9.601562 -12.515625 8.734375 -12.144531 8.015625 -11.40625 C 7.304688 -10.664062 6.953125 -9.65625 6.953125 -8.375 C 6.953125 -7.09375 7.304688 -6.082031 8.015625 -5.34375 C 8.734375 -4.601562 9.601562 -4.234375 10.625 -4.234375 C 11.644531 -4.234375 12.515625 -4.609375 13.234375 -5.359375 C 13.953125 -6.109375 14.3125 -7.125 14.3125 -8.40625 Z M 14.3125 -8.40625 "/></g></g></g><g fill="#ff3fa3" fill-opacity="1"><g transform="translate(207.665107, 258.477662)"><g><path d="M 6.984375 -14.375 C 7.484375 -15.15625 8.171875 -15.785156 9.046875 -16.265625 C 9.929688 -16.742188 10.96875 -16.984375 12.15625 -16.984375 C 13.53125 -16.984375 14.773438 -16.628906 15.890625 -15.921875 C 17.015625 -15.222656 17.898438 -14.222656 18.546875 -12.921875 C 19.203125 -11.628906 19.53125 -10.125 19.53125 -8.40625 C 19.53125 -6.675781 19.203125 -5.15625 18.546875 -3.84375 C 17.898438 -2.539062 17.015625 -1.535156 15.890625 -0.828125 C 14.773438 -0.117188 13.53125 0.234375 12.15625 0.234375 C 10.988281 0.234375 9.957031 -0.00390625 9.0625 -0.484375 C 8.175781 -0.960938 7.484375 -1.582031 6.984375 -2.34375 L 6.984375 7.984375 L 1.859375 7.984375 L 1.859375 -16.734375 L 6.984375 -16.734375 Z M 14.3125 -8.40625 C 14.3125 -9.675781 13.957031 -10.675781 13.25 -11.40625 C 12.539062 -12.144531 11.664062 -12.515625 10.625 -12.515625 C 9.601562 -12.515625 8.734375 -12.144531 8.015625 -11.40625 C 7.304688 -10.664062 6.953125 -9.65625 6.953125 -8.375 C 6.953125 -7.09375 7.304688 -6.082031 8.015625 -5.34375 C 8.734375 -4.601562 9.601562 -4.234375 10.625 -4.234375 C 11.644531 -4.234375 12.515625 -4.609375 13.234375 -5.359375 C 13.953125 -6.109375 14.3125 -7.125 14.3125 -8.40625 Z M 14.3125 -8.40625 "/></g></g></g><g fill="#ff3fa3" fill-opacity="1"><g transform="translate(228.035086, 258.477662)"><g><path d="M 6.984375 -13.953125 C 7.585938 -14.867188 8.335938 -15.59375 9.234375 -16.125 C 10.140625 -16.65625 11.140625 -16.921875 12.234375 -16.921875 L 12.234375 -11.484375 L 10.828125 -11.484375 C 9.546875 -11.484375 8.582031 -11.207031 7.9375 -10.65625 C 7.300781 -10.113281 6.984375 -9.148438 6.984375 -7.765625 L 6.984375 0 L 1.859375 0 L 1.859375 -16.734375 L 6.984375 -16.734375 Z M 6.984375 -13.953125 "/></g></g></g><g fill="#ff3fa3" fill-opacity="1"><g transform="translate(240.87507, 258.477662)"><g><path d="M 9.484375 0.234375 C 7.835938 0.234375 6.359375 -0.113281 5.046875 -0.8125 C 3.742188 -1.507812 2.71875 -2.507812 1.96875 -3.8125 C 1.21875 -5.113281 0.84375 -6.632812 0.84375 -8.375 C 0.84375 -10.09375 1.222656 -11.601562 1.984375 -12.90625 C 2.742188 -14.21875 3.78125 -15.222656 5.09375 -15.921875 C 6.414062 -16.628906 7.898438 -16.984375 9.546875 -16.984375 C 11.179688 -16.984375 12.65625 -16.628906 13.96875 -15.921875 C 15.289062 -15.222656 16.332031 -14.21875 17.09375 -12.90625 C 17.851562 -11.601562 18.234375 -10.09375 18.234375 -8.375 C 18.234375 -6.65625 17.847656 -5.140625 17.078125 -3.828125 C 16.316406 -2.515625 15.269531 -1.507812 13.9375 -0.8125 C 12.601562 -0.113281 11.117188 0.234375 9.484375 0.234375 Z M 9.484375 -4.203125 C 10.460938 -4.203125 11.296875 -4.5625 11.984375 -5.28125 C 12.671875 -6 13.015625 -7.03125 13.015625 -8.375 C 13.015625 -9.707031 12.679688 -10.734375 12.015625 -11.453125 C 11.347656 -12.179688 10.523438 -12.546875 9.546875 -12.546875 C 8.546875 -12.546875 7.710938 -12.1875 7.046875 -11.46875 C 6.390625 -10.757812 6.0625 -9.726562 6.0625 -8.375 C 6.0625 -7.03125 6.382812 -6 7.03125 -5.28125 C 7.6875 -4.5625 8.503906 -4.203125 9.484375 -4.203125 Z M 9.484375 -4.203125 "/></g></g></g><g fill="#ff3fa3" fill-opacity="1"><g transform="translate(259.985054, 258.477662)"><g><path d="M 0.84375 -8.375 C 0.84375 -10.113281 1.195312 -11.628906 1.90625 -12.921875 C 2.613281 -14.222656 3.601562 -15.222656 4.875 -15.921875 C 6.144531 -16.628906 7.597656 -16.984375 9.234375 -16.984375 C 11.335938 -16.984375 13.09375 -16.429688 14.5 -15.328125 C 15.914062 -14.234375 16.84375 -12.6875 17.28125 -10.6875 L 11.8125 -10.6875 C 11.351562 -11.957031 10.46875 -12.59375 9.15625 -12.59375 C 8.207031 -12.59375 7.453125 -12.226562 6.890625 -11.5 C 6.335938 -10.769531 6.0625 -9.726562 6.0625 -8.375 C 6.0625 -7.007812 6.335938 -5.960938 6.890625 -5.234375 C 7.453125 -4.503906 8.207031 -4.140625 9.15625 -4.140625 C 10.46875 -4.140625 11.351562 -4.78125 11.8125 -6.0625 L 17.28125 -6.0625 C 16.84375 -4.101562 15.910156 -2.5625 14.484375 -1.4375 C 13.066406 -0.320312 11.316406 0.234375 9.234375 0.234375 C 7.597656 0.234375 6.144531 -0.113281 4.875 -0.8125 C 3.601562 -1.507812 2.613281 -2.507812 1.90625 -3.8125 C 1.195312 -5.113281 0.84375 -6.632812 0.84375 -8.375 Z M 0.84375 -8.375 "/></g></g></g><g fill="#ff3fa3" fill-opacity="1"><g transform="translate(278.13504, 258.477662)"><g><path d="M 12.15625 -16.921875 C 14.070312 -16.921875 15.609375 -16.285156 16.765625 -15.015625 C 17.929688 -13.742188 18.515625 -12 18.515625 -9.78125 L 18.515625 0 L 13.40625 0 L 13.40625 -9.09375 C 13.40625 -10.207031 13.113281 -11.070312 12.53125 -11.6875 C 11.957031 -12.3125 11.179688 -12.625 10.203125 -12.625 C 9.222656 -12.625 8.441406 -12.3125 7.859375 -11.6875 C 7.273438 -11.070312 6.984375 -10.207031 6.984375 -9.09375 L 6.984375 0 L 1.859375 0 L 1.859375 -22.203125 L 6.984375 -22.203125 L 6.984375 -14.484375 C 7.503906 -15.222656 8.210938 -15.8125 9.109375 -16.25 C 10.015625 -16.695312 11.03125 -16.921875 12.15625 -16.921875 Z M 12.15625 -16.921875 "/></g></g></g><g fill="#ff3fa3" fill-opacity="1"><g transform="translate(298.355009, 258.477662)"><g/></g></g><g fill="#ff3fa3" fill-opacity="1"><g transform="translate(304.714994, 258.477662)"><g><path d="M 9.484375 0.234375 C 7.835938 0.234375 6.359375 -0.113281 5.046875 -0.8125 C 3.742188 -1.507812 2.71875 -2.507812 1.96875 -3.8125 C 1.21875 -5.113281 0.84375 -6.632812 0.84375 -8.375 C 0.84375 -10.09375 1.222656 -11.601562 1.984375 -12.90625 C 2.742188 -14.21875 3.78125 -15.222656 5.09375 -15.921875 C 6.414062 -16.628906 7.898438 -16.984375 9.546875 -16.984375 C 11.179688 -16.984375 12.65625 -16.628906 13.96875 -15.921875 C 15.289062 -15.222656 16.332031 -14.21875 17.09375 -12.90625 C 17.851562 -11.601562 18.234375 -10.09375 18.234375 -8.375 C 18.234375 -6.65625 17.847656 -5.140625 17.078125 -3.828125 C 16.316406 -2.515625 15.269531 -1.507812 13.9375 -0.8125 C 12.601562 -0.113281 11.117188 0.234375 9.484375 0.234375 Z M 9.484375 -4.203125 C 10.460938 -4.203125 11.296875 -4.5625 11.984375 -5.28125 C 12.671875 -6 13.015625 -7.03125 13.015625 -8.375 C 13.015625 -9.707031 12.679688 -10.734375 12.015625 -11.453125 C 11.347656 -12.179688 10.523438 -12.546875 9.546875 -12.546875 C 8.546875 -12.546875 7.710938 -12.1875 7.046875 -11.46875 C 6.390625 -10.757812 6.0625 -9.726562 6.0625 -8.375 C 6.0625 -7.03125 6.382812 -6 7.03125 -5.28125 C 7.6875 -4.5625 8.503906 -4.203125 9.484375 -4.203125 Z M 9.484375 -4.203125 "/></g></g></g><g fill="#ff3fa3" fill-opacity="1"><g transform="translate(323.824978, 258.477662)"><g><path d="M 10.265625 -12.484375 L 7.5 -12.484375 L 7.5 0 L 2.375 0 L 2.375 -12.484375 L 0.515625 -12.484375 L 0.515625 -16.734375 L 2.375 -16.734375 L 2.375 -17.21875 C 2.375 -19.28125 2.960938 -20.84375 4.140625 -21.90625 C 5.316406 -22.976562 7.046875 -23.515625 9.328125 -23.515625 C 9.710938 -23.515625 9.992188 -23.503906 10.171875 -23.484375 L 10.171875 -19.140625 C 9.191406 -19.203125 8.5 -19.0625 8.09375 -18.71875 C 7.695312 -18.375 7.5 -17.765625 7.5 -16.890625 L 7.5 -16.734375 L 10.265625 -16.734375 Z M 10.265625 -12.484375 "/></g></g></g><g fill="#ff3fa3" fill-opacity="1"><g transform="translate(334.624973, 258.477662)"><g/></g></g><g fill="#ff3fa3" fill-opacity="1"><g transform="translate(340.984981, 258.477662)"><g><path d="M 15.5625 -21.0625 L 15.5625 -16.953125 L 6.984375 -16.953125 L 6.984375 -12.515625 L 13.40625 -12.515625 L 13.40625 -8.515625 L 6.984375 -8.515625 L 6.984375 0 L 1.859375 0 L 1.859375 -21.0625 Z M 15.5625 -21.0625 "/></g></g></g><g fill="#ff3fa3" fill-opacity="1"><g transform="translate(357.394961, 258.477662)"><g><path d="M 6.984375 -13.953125 C 7.585938 -14.867188 8.335938 -15.59375 9.234375 -16.125 C 10.140625 -16.65625 11.140625 -16.921875 12.234375 -16.921875 L 12.234375 -11.484375 L 10.828125 -11.484375 C 9.546875 -11.484375 8.582031 -11.207031 7.9375 -10.65625 C 7.300781 -10.113281 6.984375 -9.148438 6.984375 -7.765625 L 6.984375 0 L 1.859375 0 L 1.859375 -16.734375 L 6.984375 -16.734375 Z M 6.984375 -13.953125 "/></g></g></g><g fill="#ff3fa3" fill-opacity="1"><g transform="translate(370.234934, 258.477662)"><g><path d="M 0.84375 -8.40625 C 0.84375 -10.125 1.164062 -11.628906 1.8125 -12.921875 C 2.46875 -14.222656 3.351562 -15.222656 4.46875 -15.921875 C 5.59375 -16.628906 6.84375 -16.984375 8.21875 -16.984375 C 9.394531 -16.984375 10.425781 -16.742188 11.3125 -16.265625 C 12.207031 -15.785156 12.894531 -15.15625 13.375 -14.375 L 13.375 -16.734375 L 18.515625 -16.734375 L 18.515625 0 L 13.375 0 L 13.375 -2.375 C 12.875 -1.59375 12.175781 -0.960938 11.28125 -0.484375 C 10.394531 -0.00390625 9.363281 0.234375 8.1875 0.234375 C 6.832031 0.234375 5.59375 -0.117188 4.46875 -0.828125 C 3.351562 -1.535156 2.46875 -2.539062 1.8125 -3.84375 C 1.164062 -5.15625 0.84375 -6.675781 0.84375 -8.40625 Z M 13.375 -8.375 C 13.375 -9.65625 13.019531 -10.664062 12.3125 -11.40625 C 11.601562 -12.144531 10.738281 -12.515625 9.71875 -12.515625 C 8.695312 -12.515625 7.832031 -12.144531 7.125 -11.40625 C 6.414062 -10.675781 6.0625 -9.675781 6.0625 -8.40625 C 6.0625 -7.125 6.414062 -6.109375 7.125 -5.359375 C 7.832031 -4.609375 8.695312 -4.234375 9.71875 -4.234375 C 10.738281 -4.234375 11.601562 -4.601562 12.3125 -5.34375 C 13.019531 -6.082031 13.375 -7.09375 13.375 -8.375 Z M 13.375 -8.375 "/></g></g></g><g fill="#ff3fa3" fill-opacity="1"><g transform="translate(390.604913, 258.477662)"><g><path d="M 23.21875 -16.921875 C 25.300781 -16.921875 26.957031 -16.289062 28.1875 -15.03125 C 29.414062 -13.769531 30.03125 -12.019531 30.03125 -9.78125 L 30.03125 0 L 24.9375 0 L 24.9375 -9.09375 C 24.9375 -10.164062 24.648438 -11 24.078125 -11.59375 C 23.503906 -12.1875 22.71875 -12.484375 21.71875 -12.484375 C 20.71875 -12.484375 19.929688 -12.1875 19.359375 -11.59375 C 18.796875 -11 18.515625 -10.164062 18.515625 -9.09375 L 18.515625 0 L 13.40625 0 L 13.40625 -9.09375 C 13.40625 -10.164062 13.117188 -11 12.546875 -11.59375 C 11.984375 -12.1875 11.203125 -12.484375 10.203125 -12.484375 C 9.203125 -12.484375 8.414062 -12.1875 7.84375 -11.59375 C 7.269531 -11 6.984375 -10.164062 6.984375 -9.09375 L 6.984375 0 L 1.859375 0 L 1.859375 -16.734375 L 6.984375 -16.734375 L 6.984375 -14.640625 C 7.503906 -15.335938 8.1875 -15.890625 9.03125 -16.296875 C 9.875 -16.710938 10.820312 -16.921875 11.875 -16.921875 C 13.132812 -16.921875 14.257812 -16.648438 15.25 -16.109375 C 16.238281 -15.566406 17.015625 -14.796875 17.578125 -13.796875 C 18.160156 -14.722656 18.953125 -15.472656 19.953125 -16.046875 C 20.953125 -16.628906 22.039062 -16.921875 23.21875 -16.921875 Z M 23.21875 -16.921875 "/></g></g></g><g fill="#ff3fa3" fill-opacity="1"><g transform="translate(422.374877, 258.477662)"><g><path d="M 17.640625 -8.640625 C 17.640625 -8.160156 17.609375 -7.660156 17.546875 -7.140625 L 5.9375 -7.140625 C 6.019531 -6.097656 6.351562 -5.300781 6.9375 -4.75 C 7.53125 -4.207031 8.257812 -3.9375 9.125 -3.9375 C 10.40625 -3.9375 11.296875 -4.472656 11.796875 -5.546875 L 17.25 -5.546875 C 16.96875 -4.453125 16.460938 -3.460938 15.734375 -2.578125 C 15.003906 -1.703125 14.085938 -1.015625 12.984375 -0.515625 C 11.890625 -0.015625 10.660156 0.234375 9.296875 0.234375 C 7.660156 0.234375 6.203125 -0.113281 4.921875 -0.8125 C 3.640625 -1.507812 2.640625 -2.507812 1.921875 -3.8125 C 1.203125 -5.113281 0.84375 -6.632812 0.84375 -8.375 C 0.84375 -10.113281 1.195312 -11.628906 1.90625 -12.921875 C 2.613281 -14.222656 3.609375 -15.222656 4.890625 -15.921875 C 6.171875 -16.628906 7.640625 -16.984375 9.296875 -16.984375 C 10.921875 -16.984375 12.363281 -16.640625 13.625 -15.953125 C 14.882812 -15.273438 15.867188 -14.304688 16.578125 -13.046875 C 17.285156 -11.785156 17.640625 -10.316406 17.640625 -8.640625 Z M 12.390625 -9.984375 C 12.390625 -10.867188 12.085938 -11.570312 11.484375 -12.09375 C 10.890625 -12.613281 10.140625 -12.875 9.234375 -12.875 C 8.378906 -12.875 7.65625 -12.625 7.0625 -12.125 C 6.476562 -11.625 6.113281 -10.910156 5.96875 -9.984375 Z M 12.390625 -9.984375 "/></g></g></g><g fill="#ff3fa3" fill-opacity="1"><g transform="translate(440.854864, 258.477662)"><g/></g></g><g fill="#ff3fa3" fill-opacity="1"><g transform="translate(447.214849, 258.477662)"><g><path d="M 14.96875 -3.71875 L 7.109375 -3.71875 L 5.84375 0 L 0.484375 0 L 8.09375 -21.0625 L 14.046875 -21.0625 L 21.65625 0 L 16.234375 0 Z M 13.65625 -7.6875 L 11.046875 -15.390625 L 8.453125 -7.6875 Z M 13.65625 -7.6875 "/></g></g></g><g fill="#ff3fa3" fill-opacity="1"><g transform="translate(469.324833, 258.477662)"><g><path d="M 9.390625 -4.796875 L 13.015625 -16.734375 L 18.484375 -16.734375 L 12.546875 0 L 6.203125 0 L 0.265625 -16.734375 L 5.765625 -16.734375 Z M 9.390625 -4.796875 "/></g></g></g><g fill="#ff3fa3" fill-opacity="1"><g transform="translate(488.104816, 258.477662)"><g><path d="M 17.640625 -8.640625 C 17.640625 -8.160156 17.609375 -7.660156 17.546875 -7.140625 L 5.9375 -7.140625 C 6.019531 -6.097656 6.351562 -5.300781 6.9375 -4.75 C 7.53125 -4.207031 8.257812 -3.9375 9.125 -3.9375 C 10.40625 -3.9375 11.296875 -4.472656 11.796875 -5.546875 L 17.25 -5.546875 C 16.96875 -4.453125 16.460938 -3.460938 15.734375 -2.578125 C 15.003906 -1.703125 14.085938 -1.015625 12.984375 -0.515625 C 11.890625 -0.015625 10.660156 0.234375 9.296875 0.234375 C 7.660156 0.234375 6.203125 -0.113281 4.921875 -0.8125 C 3.640625 -1.507812 2.640625 -2.507812 1.921875 -3.8125 C 1.203125 -5.113281 0.84375 -6.632812 0.84375 -8.375 C 0.84375 -10.113281 1.195312 -11.628906 1.90625 -12.921875 C 2.613281 -14.222656 3.609375 -15.222656 4.890625 -15.921875 C 6.171875 -16.628906 7.640625 -16.984375 9.296875 -16.984375 C 10.921875 -16.984375 12.363281 -16.640625 13.625 -15.953125 C 14.882812 -15.273438 15.867188 -14.304688 16.578125 -13.046875 C 17.285156 -11.785156 17.640625 -10.316406 17.640625 -8.640625 Z M 12.390625 -9.984375 C 12.390625 -10.867188 12.085938 -11.570312 11.484375 -12.09375 C 10.890625 -12.613281 10.140625 -12.875 9.234375 -12.875 C 8.378906 -12.875 7.65625 -12.625 7.0625 -12.125 C 6.476562 -11.625 6.113281 -10.910156 5.96875 -9.984375 Z M 12.390625 -9.984375 "/></g></g></g><g fill="#ff3fa3" fill-opacity="1"><g transform="translate(506.58478, 258.477662)"><g><path d="M 6.984375 -13.953125 C 7.585938 -14.867188 8.335938 -15.59375 9.234375 -16.125 C 10.140625 -16.65625 11.140625 -16.921875 12.234375 -16.921875 L 12.234375 -11.484375 L 10.828125 -11.484375 C 9.546875 -11.484375 8.582031 -11.207031 7.9375 -10.65625 C 7.300781 -10.113281 6.984375 -9.148438 6.984375 -7.765625 L 6.984375 0 L 1.859375 0 L 1.859375 -16.734375 L 6.984375 -16.734375 Z M 6.984375 -13.953125 "/></g></g></g><g fill="#ff3fa3" fill-opacity="1"><g transform="translate(519.424776, 258.477662)"><g><path d="M 0.84375 -8.40625 C 0.84375 -10.125 1.164062 -11.628906 1.8125 -12.921875 C 2.46875 -14.222656 3.351562 -15.222656 4.46875 -15.921875 C 5.59375 -16.628906 6.84375 -16.984375 8.21875 -16.984375 C 9.394531 -16.984375 10.425781 -16.742188 11.3125 -16.265625 C 12.207031 -15.785156 12.894531 -15.15625 13.375 -14.375 L 13.375 -16.734375 L 18.515625 -16.734375 L 18.515625 0 L 13.375 0 L 13.375 -2.375 C 12.875 -1.59375 12.175781 -0.960938 11.28125 -0.484375 C 10.394531 -0.00390625 9.363281 0.234375 8.1875 0.234375 C 6.832031 0.234375 5.59375 -0.117188 4.46875 -0.828125 C 3.351562 -1.535156 2.46875 -2.539062 1.8125 -3.84375 C 1.164062 -5.15625 0.84375 -6.675781 0.84375 -8.40625 Z M 13.375 -8.375 C 13.375 -9.65625 13.019531 -10.664062 12.3125 -11.40625 C 11.601562 -12.144531 10.738281 -12.515625 9.71875 -12.515625 C 8.695312 -12.515625 7.832031 -12.144531 7.125 -11.40625 C 6.414062 -10.675781 6.0625 -9.675781 6.0625 -8.40625 C 6.0625 -7.125 6.414062 -6.109375 7.125 -5.359375 C 7.832031 -4.609375 8.695312 -4.234375 9.71875 -4.234375 C 10.738281 -4.234375 11.601562 -4.601562 12.3125 -5.34375 C 13.019531 -6.082031 13.375 -7.09375 13.375 -8.375 Z M 13.375 -8.375 "/></g></g></g><g fill="#ff3fa3" fill-opacity="1"><g transform="translate(539.794755, 258.477662)"><g><path d="M 8.21875 -16.984375 C 9.394531 -16.984375 10.425781 -16.742188 11.3125 -16.265625 C 12.207031 -15.785156 12.894531 -15.15625 13.375 -14.375 L 13.375 -16.734375 L 18.515625 -16.734375 L 18.515625 -0.03125 C 18.515625 1.507812 18.207031 2.90625 17.59375 4.15625 C 16.988281 5.40625 16.0625 6.398438 14.8125 7.140625 C 13.5625 7.878906 12.003906 8.25 10.140625 8.25 C 7.660156 8.25 5.648438 7.660156 4.109375 6.484375 C 2.566406 5.316406 1.6875 3.734375 1.46875 1.734375 L 6.546875 1.734375 C 6.703125 2.378906 7.078125 2.882812 7.671875 3.25 C 8.273438 3.625 9.019531 3.8125 9.90625 3.8125 C 10.957031 3.8125 11.796875 3.503906 12.421875 2.890625 C 13.054688 2.285156 13.375 1.3125 13.375 -0.03125 L 13.375 -2.40625 C 12.875 -1.625 12.179688 -0.988281 11.296875 -0.5 C 10.421875 -0.0078125 9.394531 0.234375 8.21875 0.234375 C 6.84375 0.234375 5.59375 -0.117188 4.46875 -0.828125 C 3.351562 -1.535156 2.46875 -2.539062 1.8125 -3.84375 C 1.164062 -5.15625 0.84375 -6.675781 0.84375 -8.40625 C 0.84375 -10.125 1.164062 -11.628906 1.8125 -12.921875 C 2.46875 -14.222656 3.351562 -15.222656 4.46875 -15.921875 C 5.59375 -16.628906 6.84375 -16.984375 8.21875 -16.984375 Z M 13.375 -8.375 C 13.375 -9.65625 13.019531 -10.664062 12.3125 -11.40625 C 11.601562 -12.144531 10.738281 -12.515625 9.71875 -12.515625 C 8.695312 -12.515625 7.832031 -12.144531 7.125 -11.40625 C 6.414062 -10.675781 6.0625 -9.675781 6.0625 -8.40625 C 6.0625 -7.125 6.414062 -6.109375 7.125 -5.359375 C 7.832031 -4.609375 8.695312 -4.234375 9.71875 -4.234375 C 10.738281 -4.234375 11.601562 -4.601562 12.3125 -5.34375 C 13.019531 -6.082031 13.375 -7.09375 13.375 -8.375 Z M 13.375 -8.375 "/></g></g></g><g fill="#ff3fa3" fill-opacity="1"><g transform="translate(560.164733, 258.477662)"><g><path d="M 4.4375 -18.484375 C 3.539062 -18.484375 2.804688 -18.742188 2.234375 -19.265625 C 1.660156 -19.796875 1.375 -20.453125 1.375 -21.234375 C 1.375 -22.035156 1.660156 -22.703125 2.234375 -23.234375 C 2.804688 -23.765625 3.539062 -24.03125 4.4375 -24.03125 C 5.320312 -24.03125 6.046875 -23.765625 6.609375 -23.234375 C 7.179688 -22.703125 7.46875 -22.035156 7.46875 -21.234375 C 7.46875 -20.453125 7.179688 -19.796875 6.609375 -19.265625 C 6.046875 -18.742188 5.320312 -18.484375 4.4375 -18.484375 Z M 6.984375 -16.734375 L 6.984375 0 L 1.859375 0 L 1.859375 -16.734375 Z M 6.984375 -16.734375 "/></g></g></g><g fill="#ff3fa3" fill-opacity="1"><g transform="translate(569.014724, 258.477662)"><g><path d="M 12.0625 -16.921875 C 14.019531 -16.921875 15.582031 -16.285156 16.75 -15.015625 C 17.925781 -13.742188 18.515625 -12 18.515625 -9.78125 L 18.515625 0 L 13.40625 0 L 13.40625 -9.09375 C 13.40625 -10.207031 13.113281 -11.070312 12.53125 -11.6875 C 11.957031 -12.3125 11.179688 -12.625 10.203125 -12.625 C 9.222656 -12.625 8.441406 -12.3125 7.859375 -11.6875 C 7.273438 -11.070312 6.984375 -10.207031 6.984375 -9.09375 L 6.984375 0 L 1.859375 0 L 1.859375 -16.734375 L 6.984375 -16.734375 L 6.984375 -14.515625 C 7.503906 -15.253906 8.203125 -15.835938 9.078125 -16.265625 C 9.960938 -16.703125 10.957031 -16.921875 12.0625 -16.921875 Z M 12.0625 -16.921875 "/></g></g></g><g fill="#ff3fa3" fill-opacity="1"><g transform="translate(589.234694, 258.477662)"><g><path d="M 8.21875 -16.984375 C 9.394531 -16.984375 10.425781 -16.742188 11.3125 -16.265625 C 12.207031 -15.785156 12.894531 -15.15625 13.375 -14.375 L 13.375 -16.734375 L 18.515625 -16.734375 L 18.515625 -0.03125 C 18.515625 1.507812 18.207031 2.90625 17.59375 4.15625 C 16.988281 5.40625 16.0625 6.398438 14.8125 7.140625 C 13.5625 7.878906 12.003906 8.25 10.140625 8.25 C 7.660156 8.25 5.648438 7.660156 4.109375 6.484375 C 2.566406 5.316406 1.6875 3.734375 1.46875 1.734375 L 6.546875 1.734375 C 6.703125 2.378906 7.078125 2.882812 7.671875 3.25 C 8.273438 3.625 9.019531 3.8125 9.90625 3.8125 C 10.957031 3.8125 11.796875 3.503906 12.421875 2.890625 C 13.054688 2.285156 13.375 1.3125 13.375 -0.03125 L 13.375 -2.40625 C 12.875 -1.625 12.179688 -0.988281 11.296875 -0.5 C 10.421875 -0.0078125 9.394531 0.234375 8.21875 0.234375 C 6.84375 0.234375 5.59375 -0.117188 4.46875 -0.828125 C 3.351562 -1.535156 2.46875 -2.539062 1.8125 -3.84375 C 1.164062 -5.15625 0.84375 -6.675781 0.84375 -8.40625 C 0.84375 -10.125 1.164062 -11.628906 1.8125 -12.921875 C 2.46875 -14.222656 3.351562 -15.222656 4.46875 -15.921875 C 5.59375 -16.628906 6.84375 -16.984375 8.21875 -16.984375 Z M 13.375 -8.375 C 13.375 -9.65625 13.019531 -10.664062 12.3125 -11.40625 C 11.601562 -12.144531 10.738281 -12.515625 9.71875 -12.515625 C 8.695312 -12.515625 7.832031 -12.144531 7.125 -11.40625 C 6.414062 -10.675781 6.0625 -9.675781 6.0625 -8.40625 C 6.0625 -7.125 6.414062 -6.109375 7.125 -5.359375 C 7.832031 -4.609375 8.695312 -4.234375 9.71875 -4.234375 C 10.738281 -4.234375 11.601562 -4.601562 12.3125 -5.34375 C 13.019531 -6.082031 13.375 -7.09375 13.375 -8.375 Z M 13.375 -8.375 "/></g></g></g><g fill="#ff3fa3" fill-opacity="1"><g transform="translate(61.105287, 168.269544)"><g><path d="M 21.796875 -29.484375 L 21.796875 -23.734375 L 9.78125 -23.734375 L 9.78125 -17.515625 L 18.78125 -17.515625 L 18.78125 -11.921875 L 9.78125 -11.921875 L 9.78125 0 L 2.609375 0 L 2.609375 -29.484375 Z M 21.796875 -29.484375 "/></g></g></g><g fill="#ff3fa3" fill-opacity="1"><g transform="translate(84.079289, 168.269544)"><g><path d="M 9.78125 -19.53125 C 10.625 -20.820312 11.675781 -21.835938 12.9375 -22.578125 C 14.195312 -23.316406 15.597656 -23.6875 17.140625 -23.6875 L 17.140625 -16.09375 L 15.15625 -16.09375 C 13.363281 -16.09375 12.019531 -15.707031 11.125 -14.9375 C 10.226562 -14.164062 9.78125 -12.8125 9.78125 -10.875 L 9.78125 0 L 2.609375 0 L 2.609375 -23.4375 L 9.78125 -23.4375 Z M 9.78125 -19.53125 "/></g></g></g><g fill="#ff3fa3" fill-opacity="1"><g transform="translate(102.05529, 168.269544)"><g><path d="M 1.171875 -11.765625 C 1.171875 -14.171875 1.625 -16.28125 2.53125 -18.09375 C 3.445312 -19.914062 4.6875 -21.316406 6.25 -22.296875 C 7.820312 -23.273438 9.578125 -23.765625 11.515625 -23.765625 C 13.160156 -23.765625 14.601562 -23.425781 15.84375 -22.75 C 17.09375 -22.082031 18.054688 -21.207031 18.734375 -20.125 L 18.734375 -23.4375 L 25.90625 -23.4375 L 25.90625 0 L 18.734375 0 L 18.734375 -3.3125 C 18.035156 -2.226562 17.0625 -1.347656 15.8125 -0.671875 C 14.5625 0.00390625 13.113281 0.34375 11.46875 0.34375 C 9.5625 0.34375 7.820312 -0.148438 6.25 -1.140625 C 4.6875 -2.140625 3.445312 -3.554688 2.53125 -5.390625 C 1.625 -7.222656 1.171875 -9.347656 1.171875 -11.765625 Z M 18.734375 -11.71875 C 18.734375 -13.507812 18.234375 -14.921875 17.234375 -15.953125 C 16.242188 -16.992188 15.035156 -17.515625 13.609375 -17.515625 C 12.179688 -17.515625 10.96875 -17.003906 9.96875 -15.984375 C 8.976562 -14.960938 8.484375 -13.554688 8.484375 -11.765625 C 8.484375 -9.972656 8.976562 -8.550781 9.96875 -7.5 C 10.96875 -6.445312 12.179688 -5.921875 13.609375 -5.921875 C 15.035156 -5.921875 16.242188 -6.4375 17.234375 -7.46875 C 18.234375 -8.507812 18.734375 -9.925781 18.734375 -11.71875 Z M 18.734375 -11.71875 "/></g></g><g transform="translate(130.573288, 168.269544)"><g><path d="M 32.515625 -23.6875 C 35.421875 -23.6875 37.734375 -22.800781 39.453125 -21.03125 C 41.179688 -19.269531 42.046875 -16.820312 42.046875 -13.6875 L 42.046875 0 L 34.90625 0 L 34.90625 -12.71875 C 34.90625 -14.238281 34.503906 -15.410156 33.703125 -16.234375 C 32.910156 -17.054688 31.8125 -17.46875 30.40625 -17.46875 C 29.007812 -17.46875 27.910156 -17.054688 27.109375 -16.234375 C 26.304688 -15.410156 25.90625 -14.238281 25.90625 -12.71875 L 25.90625 0 L 18.78125 0 L 18.78125 -12.71875 C 18.78125 -14.238281 18.378906 -15.410156 17.578125 -16.234375 C 16.773438 -17.054688 15.675781 -17.46875 14.28125 -17.46875 C 12.882812 -17.46875 11.785156 -17.054688 10.984375 -16.234375 C 10.179688 -15.410156 9.78125 -14.238281 9.78125 -12.71875 L 9.78125 0 L 2.609375 0 L 2.609375 -23.4375 L 9.78125 -23.4375 L 9.78125 -20.5 C 10.507812 -21.476562 11.460938 -22.253906 12.640625 -22.828125 C 13.816406 -23.398438 15.144531 -23.6875 16.625 -23.6875 C 18.394531 -23.6875 19.972656 -23.304688 21.359375 -22.546875 C 22.742188 -21.796875 23.828125 -20.71875 24.609375 -19.3125 C 25.421875 -20.601562 26.523438 -21.65625 27.921875 -22.46875 C 29.328125 -23.28125 30.859375 -23.6875 32.515625 -23.6875 Z M 32.515625 -23.6875 "/></g></g><g transform="translate(175.051286, 168.269544)"><g><path d="M 24.703125 -12.09375 C 24.703125 -11.425781 24.65625 -10.726562 24.5625 -10 L 8.3125 -10 C 8.425781 -8.539062 8.894531 -7.425781 9.71875 -6.65625 C 10.550781 -5.882812 11.566406 -5.5 12.765625 -5.5 C 14.554688 -5.5 15.800781 -6.253906 16.5 -7.765625 L 24.15625 -7.765625 C 23.757812 -6.222656 23.050781 -4.835938 22.03125 -3.609375 C 21.007812 -2.378906 19.726562 -1.410156 18.1875 -0.703125 C 16.644531 -0.00390625 14.921875 0.34375 13.015625 0.34375 C 10.722656 0.34375 8.679688 -0.144531 6.890625 -1.125 C 5.097656 -2.113281 3.695312 -3.515625 2.6875 -5.328125 C 1.675781 -7.148438 1.171875 -9.28125 1.171875 -11.71875 C 1.171875 -14.15625 1.664062 -16.28125 2.65625 -18.09375 C 3.65625 -19.914062 5.050781 -21.316406 6.84375 -22.296875 C 8.632812 -23.273438 10.691406 -23.765625 13.015625 -23.765625 C 15.285156 -23.765625 17.300781 -23.289062 19.0625 -22.34375 C 20.832031 -21.394531 22.210938 -20.035156 23.203125 -18.265625 C 24.203125 -16.503906 24.703125 -14.445312 24.703125 -12.09375 Z M 17.34375 -13.984375 C 17.34375 -15.210938 16.921875 -16.191406 16.078125 -16.921875 C 15.242188 -17.648438 14.195312 -18.015625 12.9375 -18.015625 C 11.726562 -18.015625 10.710938 -17.664062 9.890625 -16.96875 C 9.066406 -16.269531 8.554688 -15.273438 8.359375 -13.984375 Z M 17.34375 -13.984375 "/></g></g><g transform="translate(200.923285, 168.269544)"><g/></g><g transform="translate(209.827284, 168.269544)"><g><path d="M 20.953125 -5.203125 L 9.953125 -5.203125 L 8.1875 0 L 0.671875 0 L 11.34375 -29.484375 L 19.65625 -29.484375 L 30.328125 0 L 22.71875 0 Z M 19.109375 -10.75 L 15.453125 -21.546875 L 11.84375 -10.75 Z M 19.109375 -10.75 "/></g></g><g transform="translate(240.781283, 168.269544)"><g><path d="M 13.140625 -6.71875 L 18.234375 -23.4375 L 25.875 -23.4375 L 17.5625 0 L 8.6875 0 L 0.375 -23.4375 L 8.0625 -23.4375 Z M 13.140625 -6.71875 "/></g></g></g><g fill="#ff3fa3" fill-opacity="1"><g transform="translate(267.073296, 168.269544)"><g><path d="M 24.703125 -12.09375 C 24.703125 -11.425781 24.65625 -10.726562 24.5625 -10 L 8.3125 -10 C 8.425781 -8.539062 8.894531 -7.425781 9.71875 -6.65625 C 10.550781 -5.882812 11.566406 -5.5 12.765625 -5.5 C 14.554688 -5.5 15.800781 -6.253906 16.5 -7.765625 L 24.15625 -7.765625 C 23.757812 -6.222656 23.050781 -4.835938 22.03125 -3.609375 C 21.007812 -2.378906 19.726562 -1.410156 18.1875 -0.703125 C 16.644531 -0.00390625 14.921875 0.34375 13.015625 0.34375 C 10.722656 0.34375 8.679688 -0.144531 6.890625 -1.125 C 5.097656 -2.113281 3.695312 -3.515625 2.6875 -5.328125 C 1.675781 -7.148438 1.171875 -9.28125 1.171875 -11.71875 C 1.171875 -14.15625 1.664062 -16.28125 2.65625 -18.09375 C 3.65625 -19.914062 5.050781 -21.316406 6.84375 -22.296875 C 8.632812 -23.273438 10.691406 -23.765625 13.015625 -23.765625 C 15.285156 -23.765625 17.300781 -23.289062 19.0625 -22.34375 C 20.832031 -21.394531 22.210938 -20.035156 23.203125 -18.265625 C 24.203125 -16.503906 24.703125 -14.445312 24.703125 -12.09375 Z M 17.34375 -13.984375 C 17.34375 -15.210938 16.921875 -16.191406 16.078125 -16.921875 C 15.242188 -17.648438 14.195312 -18.015625 12.9375 -18.015625 C 11.726562 -18.015625 10.710938 -17.664062 9.890625 -16.96875 C 9.066406 -16.269531 8.554688 -15.273438 8.359375 -13.984375 Z M 17.34375 -13.984375 "/></g></g><g transform="translate(292.945295, 168.269544)"><g><path d="M 9.78125 -19.53125 C 10.625 -20.820312 11.675781 -21.835938 12.9375 -22.578125 C 14.195312 -23.316406 15.597656 -23.6875 17.140625 -23.6875 L 17.140625 -16.09375 L 15.15625 -16.09375 C 13.363281 -16.09375 12.019531 -15.707031 11.125 -14.9375 C 10.226562 -14.164062 9.78125 -12.8125 9.78125 -10.875 L 9.78125 0 L 2.609375 0 L 2.609375 -23.4375 L 9.78125 -23.4375 Z M 9.78125 -19.53125 "/></g></g></g><g fill="#ff3fa3" fill-opacity="1"><g transform="translate(310.921286, 168.269544)"><g><path d="M 1.171875 -11.765625 C 1.171875 -14.171875 1.625 -16.28125 2.53125 -18.09375 C 3.445312 -19.914062 4.6875 -21.316406 6.25 -22.296875 C 7.820312 -23.273438 9.578125 -23.765625 11.515625 -23.765625 C 13.160156 -23.765625 14.601562 -23.425781 15.84375 -22.75 C 17.09375 -22.082031 18.054688 -21.207031 18.734375 -20.125 L 18.734375 -23.4375 L 25.90625 -23.4375 L 25.90625 0 L 18.734375 0 L 18.734375 -3.3125 C 18.035156 -2.226562 17.0625 -1.347656 15.8125 -0.671875 C 14.5625 0.00390625 13.113281 0.34375 11.46875 0.34375 C 9.5625 0.34375 7.820312 -0.148438 6.25 -1.140625 C 4.6875 -2.140625 3.445312 -3.554688 2.53125 -5.390625 C 1.625 -7.222656 1.171875 -9.347656 1.171875 -11.765625 Z M 18.734375 -11.71875 C 18.734375 -13.507812 18.234375 -14.921875 17.234375 -15.953125 C 16.242188 -16.992188 15.035156 -17.515625 13.609375 -17.515625 C 12.179688 -17.515625 10.96875 -17.003906 9.96875 -15.984375 C 8.976562 -14.960938 8.484375 -13.554688 8.484375 -11.765625 C 8.484375 -9.972656 8.976562 -8.550781 9.96875 -7.5 C 10.96875 -6.445312 12.179688 -5.921875 13.609375 -5.921875 C 15.035156 -5.921875 16.242188 -6.4375 17.234375 -7.46875 C 18.234375 -8.507812 18.734375 -9.925781 18.734375 -11.71875 Z M 18.734375 -11.71875 "/></g></g></g><g fill="#ff3fa3" fill-opacity="1"><g transform="translate(339.439275, 168.269544)"><g><path d="M 11.515625 -23.765625 C 13.160156 -23.765625 14.601562 -23.425781 15.84375 -22.75 C 17.09375 -22.082031 18.054688 -21.207031 18.734375 -20.125 L 18.734375 -23.4375 L 25.90625 -23.4375 L 25.90625 -0.046875 C 25.90625 2.109375 25.476562 4.0625 24.625 5.8125 C 23.78125 7.5625 22.484375 8.953125 20.734375 9.984375 C 18.984375 11.023438 16.804688 11.546875 14.203125 11.546875 C 10.722656 11.546875 7.90625 10.726562 5.75 9.09375 C 3.59375 7.457031 2.363281 5.238281 2.0625 2.4375 L 9.15625 2.4375 C 9.375 3.332031 9.90625 4.035156 10.75 4.546875 C 11.59375 5.066406 12.628906 5.328125 13.859375 5.328125 C 15.347656 5.328125 16.53125 4.898438 17.40625 4.046875 C 18.289062 3.191406 18.734375 1.828125 18.734375 -0.046875 L 18.734375 -3.359375 C 18.035156 -2.265625 17.066406 -1.375 15.828125 -0.6875 C 14.597656 0 13.160156 0.34375 11.515625 0.34375 C 9.578125 0.34375 7.820312 -0.148438 6.25 -1.140625 C 4.6875 -2.140625 3.445312 -3.554688 2.53125 -5.390625 C 1.625 -7.222656 1.171875 -9.347656 1.171875 -11.765625 C 1.171875 -14.171875 1.625 -16.28125 2.53125 -18.09375 C 3.445312 -19.914062 4.6875 -21.316406 6.25 -22.296875 C 7.820312 -23.273438 9.578125 -23.765625 11.515625 -23.765625 Z M 18.734375 -11.71875 C 18.734375 -13.507812 18.234375 -14.921875 17.234375 -15.953125 C 16.242188 -16.992188 15.035156 -17.515625 13.609375 -17.515625 C 12.179688 -17.515625 10.96875 -17.003906 9.96875 -15.984375 C 8.976562 -14.960938 8.484375 -13.554688 8.484375 -11.765625 C 8.484375 -9.972656 8.976562 -8.550781 9.96875 -7.5 C 10.96875 -6.445312 12.179688 -5.921875 13.609375 -5.921875 C 15.035156 -5.921875 16.242188 -6.4375 17.234375 -7.46875 C 18.234375 -8.507812 18.734375 -9.925781 18.734375 -11.71875 Z M 18.734375 -11.71875 "/></g></g></g><g fill="#ff3fa3" fill-opacity="1"><g transform="translate(367.957263, 168.269544)"><g><path d="M 24.703125 -12.09375 C 24.703125 -11.425781 24.65625 -10.726562 24.5625 -10 L 8.3125 -10 C 8.425781 -8.539062 8.894531 -7.425781 9.71875 -6.65625 C 10.550781 -5.882812 11.566406 -5.5 12.765625 -5.5 C 14.554688 -5.5 15.800781 -6.253906 16.5 -7.765625 L 24.15625 -7.765625 C 23.757812 -6.222656 23.050781 -4.835938 22.03125 -3.609375 C 21.007812 -2.378906 19.726562 -1.410156 18.1875 -0.703125 C 16.644531 -0.00390625 14.921875 0.34375 13.015625 0.34375 C 10.722656 0.34375 8.679688 -0.144531 6.890625 -1.125 C 5.097656 -2.113281 3.695312 -3.515625 2.6875 -5.328125 C 1.675781 -7.148438 1.171875 -9.28125 1.171875 -11.71875 C 1.171875 -14.15625 1.664062 -16.28125 2.65625 -18.09375 C 3.65625 -19.914062 5.050781 -21.316406 6.84375 -22.296875 C 8.632812 -23.273438 10.691406 -23.765625 13.015625 -23.765625 C 15.285156 -23.765625 17.300781 -23.289062 19.0625 -22.34375 C 20.832031 -21.394531 22.210938 -20.035156 23.203125 -18.265625 C 24.203125 -16.503906 24.703125 -14.445312 24.703125 -12.09375 Z M 17.34375 -13.984375 C 17.34375 -15.210938 16.921875 -16.191406 16.078125 -16.921875 C 15.242188 -17.648438 14.195312 -18.015625 12.9375 -18.015625 C 11.726562 -18.015625 10.710938 -17.664062 9.890625 -16.96875 C 9.066406 -16.269531 8.554688 -15.273438 8.359375 -13.984375 Z M 17.34375 -13.984375 "/></g></g></g></svg>